# Blender v2.74 (sub 0) OBJ File: ''
# www.blender.org
mtllib Tree_1.mtl
o trees_top
v 0.006927 82.908226 -2.897973
v 12.178955 69.595238 -3.746974
v 7.714935 69.595238 -12.110989
v 8.613953 69.595238 4.860020
v -0.276062 69.595238 -15.879971
v 0.006927 69.595238 7.663029
v -7.700073 69.595238 -12.274990
v -8.600067 69.595238 4.860020
v -12.165070 69.595238 -3.746974
v 24.237946 58.377235 -4.734983
v 17.140930 58.377235 12.398012
v -16.505066 58.377239 -20.190977
v 15.050934 58.377239 -21.966978
v -1.264069 58.377239 -27.937986
v 0.006927 58.377232 18.260012
v -24.223053 58.377235 -4.734983
v -17.126068 58.377235 12.398012
v -17.289062 25.968243 -23.364994
v -26.276062 14.750235 -32.937992
v -37.163055 14.750231 -6.654973
v -27.307068 25.968241 -6.525973
v -16.129059 39.280235 -5.953980
v -11.403046 39.280239 -17.362976
v 17.302948 25.968243 -23.364994
v 37.176941 14.750231 -6.654973
v 26.289948 14.750235 -32.937992
v 27.321930 25.968241 -6.525973
v 16.142944 39.280235 -5.953980
v 11.416931 39.280239 -17.362976
v -13.881073 41.555233 -19.185974
v -23.776062 30.337231 -30.010012
v -33.627045 30.337227 -6.226992
v -21.926056 41.555229 -5.663971
v -11.459045 54.867226 -5.260984
v -8.101074 54.867226 -14.391966
v 13.894928 41.555233 -19.185974
v 33.640930 30.337227 -6.226992
v 23.789948 30.337231 -30.010012
v 21.939941 41.555229 -5.663971
v 11.472931 54.867226 -5.260984
v 8.114929 54.867226 -13.367979
v -11.598053 52.057232 -16.386992
v -22.828064 40.839230 -28.899994
v -32.286072 40.839226 -6.064972
v -18.321045 52.057228 -5.087981
v -9.406067 65.369240 -4.669980
v -4.485046 66.595238 -11.535976
v 11.611938 52.057232 -16.386992
v 32.299927 40.839226 -6.064972
v 22.841949 40.839230 -28.899994
v 18.334930 52.057228 -5.087981
v 9.419952 65.369240 -4.669980
v 6.662933 65.369240 -11.325985
v -27.307068 25.968241 -6.525973
v -37.163055 14.750231 -6.654973
v -26.276062 14.750225 19.628017
v -19.307068 25.968237 12.789029
v -16.129059 39.280235 -5.953980
v -11.403046 39.280235 5.456023
v -19.307068 25.968237 12.789029
v -26.276062 14.750225 19.628017
v 0.006927 14.750225 28.620022
v 0.006927 25.968235 19.078030
v -11.403046 39.280235 5.456023
v 0.006927 39.280235 8.872008
v 19.320953 25.968237 12.789029
v 0.006927 14.750225 28.620022
v 26.289948 14.750225 19.628017
v 0.006927 25.968235 19.078030
v 11.416931 39.280235 5.456023
v 0.006927 39.280235 8.872008
v 27.321930 25.968241 -6.525973
v 26.289948 14.750225 19.628017
v 37.176941 14.750231 -6.654973
v 19.320953 25.968237 12.789029
v 16.142944 39.280235 -5.953980
v 11.416931 39.280235 5.456023
v -21.926056 41.555229 -5.663971
v -33.627045 30.337227 -6.226992
v -23.776062 30.337223 17.555021
v -15.502045 41.555229 9.846008
v -11.459045 54.867226 -5.260984
v -8.101074 54.867226 2.847017
v -15.502045 41.555229 9.846008
v -23.776062 30.337223 17.555021
v 0.006927 30.337223 25.692015
v 0.006927 41.555225 14.896027
v -8.101074 54.867226 2.847017
v 0.006927 54.867226 5.274019
v 15.515930 41.555229 9.846008
v 0.006927 30.337223 25.692015
v 23.789948 30.337223 17.555021
v 0.006927 41.555225 14.896027
v 8.114929 54.867226 2.847017
v 0.006927 54.867226 5.274019
v 21.939941 41.555229 -5.663971
v 23.789948 30.337223 17.555021
v 33.640930 30.337227 -6.226992
v 15.515930 41.555229 9.846008
v 11.472931 54.867226 -5.260984
v 8.114929 54.867226 2.847017
v -18.321045 52.057228 -5.087981
v -32.286072 40.839226 -6.064972
v -22.828064 40.839222 16.770020
v -12.953064 52.057228 7.872011
v -9.406067 65.369240 -4.669980
v -6.649048 65.369240 1.986026
v -12.953064 52.057228 7.872011
v -22.828064 40.839222 16.770020
v 0.006927 40.839222 24.582031
v 0.006927 52.057228 12.092011
v -6.649048 65.369240 1.986026
v 0.006927 65.369240 3.979038
v 12.966949 52.057228 7.872011
v 0.006927 40.839222 24.582031
v 22.841949 40.839222 16.770020
v 0.006927 52.057228 12.092011
v 6.662933 65.369240 1.986026
v 0.006927 65.369240 3.979038
v 18.334930 52.057228 -5.087981
v 22.841949 40.839222 16.770020
v 32.299927 40.839226 -6.064972
v 12.966949 52.057228 7.872011
v 9.419952 65.369240 -4.669980
v 6.662933 65.369240 1.986026
vt 1.736790 0.211804
vt 1.836300 0.215371
vt 1.799800 0.250488
vt 1.807150 0.179233
vt 1.734530 0.266311
vt 1.736790 0.167465
vt 1.673780 0.251178
vt 1.666420 0.179233
vt 1.637280 0.215371
vt 1.930760 0.219520
vt 1.876860 0.147583
vt 1.601800 0.284410
vt 1.859780 0.291870
vt 1.726620 0.316938
vt 1.736790 0.122972
vt 1.542820 0.219520
vt 1.596720 0.147583
vt 1.106300 0.915190
vt 1.088950 0.850430
vt 1.237360 0.850430
vt 1.220020 0.915190
vt 1.210660 0.994718
vt 1.115660 0.994718
vt 1.879740 0.915190
vt 1.757470 0.850430
vt 1.893470 0.850430
vt 1.771200 0.915190
vt 1.784460 0.994718
vt 1.866480 0.994718
vt -0.147707 0.915190
vt -0.162292 0.850430
vt -0.013881 0.850430
vt -0.028466 0.915190
vt -0.041451 0.994718
vt -0.134721 0.994718
vt 0.633090 0.915190
vt 0.510823 0.850430
vt 0.646815 0.850430
vt 0.524549 0.915190
vt 0.537810 0.994718
vt 0.619829 0.994718
vt 2.434430 0.910492
vt 2.420640 0.842367
vt 2.569050 0.842367
vt 2.555250 0.910492
vt 2.544660 0.994013
vt 2.445020 0.994013
vt 3.192480 0.910492
vt 3.070210 0.842367
vt 3.206200 0.842367
vt 3.083940 0.910492
vt 3.097200 0.994013
vt 3.179220 0.994013
vt 1.240980 0.915190
vt 1.221900 0.850430
vt 1.379910 0.850430
vt 1.365260 0.915190
vt 1.254730 0.994718
vt 1.351590 0.994718
vt 1.374840 0.915190
vt 1.360490 0.850430
vt 1.510650 0.850430
vt 1.499790 0.915190
vt 1.392440 0.994718
vt 1.485290 0.994718
vt 1.631420 0.915190
vt 1.498870 0.850430
vt 1.647730 0.850430
vt 1.509480 0.915190
vt 1.612200 0.994718
vt 1.520480 0.994718
vt 1.761840 0.915190
vt 1.631610 0.850430
vt 1.776530 0.850430
vt 1.646290 0.915190
vt 1.743680 0.994718
vt 1.664450 0.994718
vt -0.012801 0.915190
vt -0.030428 0.850430
vt 0.127588 0.850430
vt 0.113547 0.915190
vt 0.000242 0.994718
vt 0.096918 0.994718
vt 0.124155 0.915190
vt 0.108296 0.850430
vt 0.264179 0.850430
vt 0.247617 0.915190
vt 0.144746 0.994718
vt 0.227728 0.994718
vt 0.384770 0.915190
vt 0.243660 0.850430
vt 0.401076 0.850430
vt 0.259966 0.915190
vt 0.365544 0.994718
vt 0.279192 0.994718
vt 0.515191 0.915190
vt 0.384954 0.850430
vt 0.529876 0.850430
vt 0.392624 0.915190
vt 0.497031 0.994718
vt 0.410784 0.994718
vt 2.567500 0.910492
vt 2.550290 0.842367
vt 2.708310 0.842367
vt 2.691100 0.910492
vt 2.578010 0.994013
vt 2.680600 0.994013
vt 2.684240 0.910492
vt 2.667680 0.842367
vt 2.823570 0.842367
vt 2.801200 0.910492
vt 2.704130 0.994013
vt 2.781310 0.994013
vt 2.944160 0.910492
vt 2.803050 0.842367
vt 2.960460 0.842367
vt 2.808420 0.910492
vt 2.924930 0.994013
vt 2.804080 0.994013
vt 3.074580 0.910492
vt 2.944340 0.842367
vt 3.089260 0.842367
vt 2.959030 0.910492
vt 3.056420 0.994013
vt 2.977190 0.994013
vn 0.676600 0.641700 -0.361100
vn 0.714300 0.634200 0.295900
vn 0.321400 0.657600 -0.681400
vn 0.247200 0.602200 0.759100
vn -0.326900 0.663400 -0.673100
vn -0.247200 0.602200 0.759100
vn -0.678500 0.643000 -0.355200
vn -0.714300 0.634200 0.295900
vn 0.627000 0.703500 -0.334600
vn 0.666700 0.692300 0.276100
vn 0.666700 0.692300 0.276200
vn -0.312300 0.699100 -0.643200
vn 0.290800 0.731700 -0.616500
vn -0.320700 0.706400 -0.630900
vn 0.245600 0.699600 -0.671000
vn 0.627000 0.703700 -0.334300
vn -0.619400 0.715000 -0.324300
vn -0.230400 0.668200 0.707400
vn 0.230400 0.668200 0.707400
vn 0.242800 0.661400 0.709600
vn -0.632300 0.707500 -0.315700
vn -0.242800 0.661400 0.709700
vn -0.666700 0.692300 0.276100
vn -0.666700 0.692300 0.276200
vn -0.631900 0.729600 -0.261700
vn -0.683900 0.605600 -0.406900
vn -0.689600 0.596700 -0.410300
vn -0.798800 0.502400 -0.330900
vn 0.631900 0.729600 -0.261700
vn 0.683900 0.605500 -0.406900
vn 0.689600 0.596700 -0.410300
vn 0.798800 0.502400 -0.330900
vn -0.596100 0.764000 -0.246900
vn -0.631800 0.677900 -0.375900
vn -0.707000 0.568600 -0.420600
vn -0.828700 0.469500 -0.304700
vn 0.596100 0.764000 -0.246900
vn 0.631800 0.677900 -0.375900
vn 0.707000 0.568600 -0.420600
vn 0.803200 0.494100 -0.332700
vn -0.549500 0.803900 -0.227600
vn -0.574000 0.744300 -0.341500
vn -0.739600 0.509200 -0.440100
vn -0.740200 0.508800 -0.439600
vn 0.549500 0.803900 -0.227600
vn 0.574000 0.744300 -0.341500
vn 0.739600 0.509200 -0.440100
vn 0.830000 0.439300 -0.343800
vn -0.718900 0.628200 0.297800
vn -0.718900 0.628100 0.297800
vn -0.735800 0.604800 0.304800
vn -0.255500 0.614000 0.746800
vn -0.240700 0.628900 0.739300
vn -0.252700 0.577600 0.776200
vn -0.231200 0.592000 0.772100
vn 0.255500 0.614000 0.746800
vn 0.240700 0.628900 0.739300
vn 0.252700 0.577600 0.776200
vn 0.231200 0.592000 0.772100
vn 0.718900 0.628100 0.297800
vn 0.735800 0.604800 0.304800
vn -0.671700 0.686600 0.278200
vn -0.751600 0.581500 0.311300
vn -0.241900 0.664400 0.707100
vn -0.228400 0.675100 0.701500
vn -0.257000 0.557800 0.789200
vn -0.235800 0.569300 0.787600
vn 0.241900 0.664400 0.707100
vn 0.228400 0.675100 0.701500
vn 0.257000 0.557800 0.789200
vn 0.235800 0.569300 0.787600
vn 0.671700 0.686600 0.278200
vn 0.751600 0.581500 0.311300
vn -0.616300 0.745000 0.255300
vn -0.789900 0.518700 0.327200
vn -0.224900 0.719300 0.657300
vn -0.212600 0.727000 0.652900
vn -0.269300 0.493300 0.827100
vn -0.247700 0.504200 0.827300
vn 0.224900 0.719300 0.657300
vn 0.212600 0.727000 0.652900
vn 0.269300 0.493300 0.827100
vn 0.247700 0.504200 0.827300
vn 0.616300 0.745000 0.255300
vn 0.789900 0.518700 0.327200
g trees_top_trees_top_Material
usemtl Material
s 1
f 1/1/1 2/2/1 3/3/1
s 2
f 1/1/2 4/4/2 2/2/2
f 1/1/3 3/3/3 5/5/3
s 1
f 1/1/4 6/6/4 4/4/4
f 1/1/5 5/5/5 7/7/5
s 2
f 1/1/6 8/8/6 6/6/6
f 1/1/7 7/7/7 9/9/7
s 1
f 1/1/8 9/9/8 8/8/8
s 2
f 2/2/9 10/10/9 3/3/9
s 1
f 2/2/10 4/4/10 11/11/10
s 4
f 2/2/11 11/11/11 10/10/11
s 2
f 5/5/12 12/12/12 7/7/12
s 1
f 5/5/13 3/3/13 13/13/13
f 5/5/14 14/14/14 12/12/14
s 2
f 5/5/15 13/13/15 14/14/15
s 4
f 13/13/16 3/3/16 10/10/16
s 1
f 7/7/17 12/12/17 9/9/17
f 6/6/18 8/8/18 15/15/18
s 2
f 6/6/19 15/15/19 4/4/19
s 4
f 4/4/20 15/15/20 11/11/20
s 2
f 12/12/21 16/16/21 9/9/21
f 8/8/22 17/17/22 15/15/22
s 4
f 8/8/23 9/9/23 17/17/23
s 1
f 17/17/24 9/9/24 16/16/24
f 18/18/25 19/19/25 20/20/25
s 2
f 18/18/26 20/20/26 21/21/26
s 1
f 18/18/27 21/21/27 22/22/27
s 2
f 18/18/28 22/22/28 23/23/28
s 1
f 24/24/29 25/25/29 26/26/29
s 2
f 24/24/30 27/27/30 25/25/30
s 1
f 24/24/31 28/28/31 27/27/31
s 2
f 24/24/32 29/29/32 28/28/32
s 1
f 30/30/33 31/31/33 32/32/33
s 2
f 30/30/34 32/32/34 33/33/34
s 1
f 30/30/35 33/33/35 34/34/35
s 2
f 30/30/36 34/34/36 35/35/36
s 1
f 36/36/37 37/37/37 38/38/37
s 2
f 36/36/38 39/39/38 37/37/38
s 1
f 36/36/39 40/40/39 39/39/39
s 2
f 36/36/40 41/41/40 40/40/40
s 1
f 42/42/41 43/43/41 44/44/41
s 2
f 42/42/42 44/44/42 45/45/42
s 1
f 42/42/43 45/45/43 46/46/43
s 2
f 42/42/44 46/46/44 47/47/44
s 1
f 48/48/45 49/49/45 50/50/45
s 2
f 48/48/46 51/51/46 49/49/46
s 1
f 48/48/47 52/52/47 51/51/47
s 2
f 48/48/48 53/53/48 52/52/48
s 1
f 54/54/49 55/55/49 56/56/49
s 2
f 54/54/50 56/56/50 57/57/50
s 1
f 54/54/51 57/57/51 58/58/51
s 2
f 57/57/51 59/59/51 58/58/51
s 1
f 60/60/52 61/61/52 62/62/52
s 2
f 60/60/53 62/62/53 63/63/53
s 1
f 60/60/54 63/63/54 64/64/54
s 2
f 63/63/55 65/65/55 64/64/55
s 1
f 66/66/56 67/67/56 68/68/56
s 2
f 66/66/57 69/69/57 67/67/57
s 1
f 66/66/58 70/70/58 69/69/58
s 2
f 70/70/59 71/71/59 69/69/59
s 1
f 72/72/60 73/73/60 74/74/60
s 2
f 72/72/60 75/75/60 73/73/60
s 1
f 72/72/61 76/76/61 75/75/61
s 2
f 76/76/61 77/77/61 75/75/61
s 1
f 78/78/62 79/79/62 80/80/62
s 2
f 78/78/62 80/80/62 81/81/62
s 1
f 78/78/63 81/81/63 82/82/63
s 2
f 81/81/63 83/83/63 82/82/63
s 1
f 84/84/64 85/85/64 86/86/64
s 2
f 84/84/65 86/86/65 87/87/65
s 1
f 84/84/66 87/87/66 88/88/66
s 2
f 87/87/67 89/89/67 88/88/67
s 1
f 90/90/68 91/91/68 92/92/68
s 2
f 90/90/69 93/93/69 91/91/69
s 1
f 90/90/70 94/94/70 93/93/70
s 2
f 94/94/71 95/95/71 93/93/71
s 1
f 96/96/72 97/97/72 98/98/72
s 2
f 96/96/72 99/99/72 97/97/72
s 1
f 96/96/73 100/100/73 99/99/73
s 2
f 100/100/73 101/101/73 99/99/73
s 1
f 102/102/74 103/103/74 104/104/74
s 2
f 102/102/74 104/104/74 105/105/74
s 1
f 102/102/75 105/105/75 106/106/75
s 2
f 105/105/75 107/107/75 106/106/75
s 1
f 108/108/76 109/109/76 110/110/76
s 2
f 108/108/77 110/110/77 111/111/77
s 1
f 108/108/78 111/111/78 112/112/78
s 2
f 111/111/79 113/113/79 112/112/79
s 1
f 114/114/80 115/115/80 116/116/80
s 2
f 114/114/81 117/117/81 115/115/81
s 1
f 114/114/82 118/118/82 117/117/82
s 2
f 118/118/83 119/119/83 117/117/83
s 1
f 120/120/84 121/121/84 122/122/84
s 2
f 120/120/84 123/123/84 121/121/84
s 1
f 120/120/85 124/124/85 123/123/85
s 2
f 124/124/85 125/125/85 123/123/85
o trees_bottom
v -6.982025 -11.259591 5.022673
v -9.495026 -3.212394 -3.881348
v -16.299042 -11.259589 -3.784334
v 4.898956 21.233612 -3.119320
v -0.040039 22.714615 3.776676
v 6.404968 4.284607 -3.271331
v 0.158966 -0.699395 7.723663
v 7.112976 -11.259591 5.070646
v 16.289978 -11.259589 -3.784334
v 9.968964 -2.680389 -3.881348
v -6.912048 5.258606 -3.271331
v -6.075043 21.883606 -3.119320
v -0.139038 -11.259592 14.320646
v 0.158966 -0.699395 7.723663
v 9.968964 -2.680389 -3.881348
v -9.495026 -3.212394 -3.881348
v 9.968964 -2.680389 -3.881348
v -9.495026 -3.212394 -3.881348
vt 0.860391 0.015098
vt 0.820571 0.263597
vt 0.752013 0.015098
vt -0.188304 0.960638
vt -0.018067 0.933967
vt -0.203968 0.539974
vt -0.005582 0.385546
vt 0.816651 0.259730
vt -0.190278 0.516208
vt 1.000000 0.015098
vt 1.000000 0.298122
vt 0.813569 0.252053
vt -0.242084 0.180328
vt -0.245428 0.172311
vt 0.833170 0.275948
vn -0.591700 0.507900 0.626000
vn 0.817900 0.067600 0.571300
vn 0.846300 0.095500 0.524100
vn 0.616100 0.461200 0.638500
vn -0.814900 0.089600 0.572600
vn -0.754000 0.032000 0.656000
vn -0.749600 0.365800 0.551700
vn 0.744600 0.347100 0.570200
vn -0.774500 0.192800 0.602500
vn 0.747500 0.332100 0.575200
vn -0.752200 0.369100 0.545800
vn 0.739700 0.341400 0.579900
g trees_bottom_trees_bottom_chip_wood_a
usemtl chip_wood_a
s 1
f 126/126/86 127/127/86 128/128/86
f 129/129/87 130/130/87 131/131/87
s 2
f 131/131/88 130/130/88 132/132/88
s 1
f 133/126/89 134/128/89 135/133/89
f 132/132/90 130/130/90 136/134/90
s 2
f 136/134/91 130/130/91 137/129/91
s 1
f 138/135/92 139/136/92 126/126/92
f 140/137/93 139/136/93 133/126/93
s 2
f 132/132/94 136/134/94 141/138/94
s 1
f 142/139/95 131/131/95 132/132/95
s 2
f 126/126/96 139/136/96 143/140/96
f 133/126/97 139/136/97 138/135/97
