# Blender v2.77 (sub 0) OBJ File: ''
# www.blender.org
mtllib Lowcut Grass.mtl
o MODELS_bin_017:poly000
v 0.298438 -0.000000 0.010938
v 0.259766 0.170703 -0.066016
v 0.424219 0.000000 -0.016797
v 0.388672 0.171094 -0.094531
v 0.430469 0.017187 0.769922
v 0.330859 0.071094 0.539453
v 0.405469 0.071484 0.515625
v 0.187109 -0.000000 0.007813
v 0.293750 0.000000 -0.027734
v -0.073828 0.000000 -0.002734
v -0.043750 0.123047 0.300000
v -0.150781 -0.000000 0.000391
v -0.153125 0.123047 0.305860
v -0.410156 0.079297 0.451172
v -0.339844 0.155859 0.156250
v -0.235938 0.155859 0.179297
v -0.248438 0.000000 -0.027344
v -0.138281 0.000000 -0.002734
v 0.473438 0.083203 0.487500
v 0.374219 0.158594 0.196094
v 0.488281 0.158594 0.190625
v 0.358594 -0.000000 0.001953
v 0.480078 0.000000 -0.002734
v -0.634375 -0.000000 0.001953
v -0.649610 0.152344 -0.092188
v -0.532031 -0.000000 0.004297
v -0.504297 0.152344 -0.089062
v -0.378516 0.078516 -0.642578
v -0.199219 0.118359 -0.246484
v -0.345313 0.118359 -0.198047
v -0.161328 0.000000 -0.013672
v -0.264453 -0.000000 0.019922
v 0.026953 -0.000000 0.011328
v 0.021094 0.167578 -0.114453
v 0.153125 -0.000000 0.008203
v 0.150000 0.167578 -0.117969
v -0.163281 -0.000000 0.010547
v -0.183203 0.177734 -0.102344
v -0.019922 0.000000 -0.005469
v -0.036719 0.177734 -0.119141
v -0.705078 0.162891 -0.138281
v -0.559375 0.000000 -0.035547
v -0.786719 0.162891 -0.110547
v -0.646485 0.000000 -0.006250
v 0.049609 0.070312 0.624219
v 0.066406 0.149609 0.229297
v 0.161328 0.149219 0.248438
v 0.119141 0.000000 -0.021094
v 0.219531 0.000000 -0.000781
v 0.031250 -0.000000 0.016797
v -0.085547 0.143750 0.182422
v -0.047266 0.000000 -0.022656
v -0.159766 0.143750 0.145313
v 0.491797 -0.000000 0.010547
v 0.420703 0.143750 -0.139453
v 0.576172 0.000000 -0.012109
v 0.500391 0.143750 -0.161328
v 0.975391 0.030469 0.134766
v 0.773047 0.124219 0.073047
v 0.826953 0.124219 0.044141
v 0.627735 -0.000000 0.003125
v 0.666016 0.000000 -0.016797
v 0.275391 0.140625 -0.160156
v 0.209375 -0.000000 0.010547
v 0.168359 0.140625 -0.206641
v 0.134375 0.000000 -0.022266
v -0.589063 0.000000 -0.015234
v -0.558594 0.173828 -0.096875
v -0.456641 -0.000000 0.011328
v -0.423438 0.174219 -0.069531
v -0.029688 -0.000000 0.010547
v -0.083203 0.122656 -0.299219
v 0.026563 0.000000 -0.006641
v -0.003516 0.122656 -0.324609
v -0.844922 -0.000000 0.002734
v -0.950391 0.114844 -0.030469
v -0.823438 0.000000 -0.010156
v -0.920313 0.114844 -0.049609
v 0.688281 0.000000 -0.043359
v 0.841407 0.140625 -0.053516
v 0.689844 0.000000 -0.004688
v 0.843750 0.140625 0.000391
v -0.937500 0.037891 0.151172
v -0.911719 0.076953 0.100391
v -0.876953 0.076953 0.108203
v -0.819922 0.000000 -0.003516
v -0.769531 -0.000000 0.007422
v -0.424610 0.143750 0.135547
v -0.312109 0.000000 -0.028516
v -0.350391 0.143750 0.171875
v -0.233203 -0.000000 0.009766
v 0.562891 0.056641 -0.254688
v 0.682422 0.139844 -0.116406
v 0.606641 0.139844 -0.107422
v 0.727735 0.000000 -0.021875
v 0.647266 0.000000 -0.012500
v -0.817188 -0.000000 0.013281
v -0.941407 0.124219 0.014453
v -0.819922 0.000000 -0.010547
v -0.944141 0.124219 -0.008203
v -0.486328 -0.000000 0.006641
v -0.583985 0.155859 0.134375
v -0.596875 0.000000 -0.010156
v -0.688281 0.155859 0.118359
v -0.353906 0.000000 -0.000781
v -0.451953 -0.000000 0.005859
v -0.447266 0.120313 -0.262109
v 0.202344 0.107031 -0.346875
v -0.084375 0.041016 0.653516
v -0.166797 0.117188 -0.499219
v -0.560938 0.075000 -0.265625
v -0.980860 0.072656 -0.276563
v 0.075000 0.102344 -0.548828
v -0.376172 0.112109 -0.360938
v 0.312500 0.000000 -0.001172
v 0.389844 -0.000000 0.011328
v 0.246094 0.096094 0.281641
v 0.461719 0.000000 -0.013281
v 0.367188 -0.000000 0.018750
v 0.313672 0.079297 -0.474610
v 0.619531 0.000000 -0.000781
v 0.541406 0.000000 -0.022266
v 0.851953 0.061719 -0.243750
v 0.480860 -0.000000 0.023047
v 0.557031 0.000000 -0.011328
v 0.790235 0.066016 0.297266
v 0.523828 0.000000 -0.036719
v 0.438281 -0.000000 0.002734
v 0.243750 0.064063 -0.568750
v 0.459766 -0.000000 0.007031
v 0.569531 0.000000 -0.005078
v 0.586719 0.090234 0.301563
v 0.482422 -0.000000 0.007031
v 0.419922 0.000000 -0.005859
v 0.593750 0.034766 -0.344922
v -0.751172 0.000000 -0.016797
v -0.705078 0.000000 -0.000781
v -0.989063 0.030469 0.163281
v -0.714844 0.000000 -0.019141
v -0.609375 0.000000 -0.008594
v -0.747266 0.087500 0.183594
v -0.423047 0.000000 -0.016406
v -0.335156 -0.000000 0.001172
v -0.505469 0.062109 0.460547
v 0.317969 0.058594 -0.512500
v -0.271875 0.000000 -0.014453
v -0.348438 -0.000000 0.006641
v -0.504688 0.056641 -0.330859
v -0.090234 0.030469 -0.673828
v 0.265625 -0.000000 0.027344
v 0.175781 0.000000 -0.013672
v 0.449610 0.149609 -0.240625
v -0.281641 0.062109 0.425781
v 1.128125 0.058594 -0.029297
v 0.555078 0.000000 -0.007422
v 0.650000 0.000000 -0.019922
v 0.708594 0.079687 0.163281
v 0.705078 0.000000 -0.030078
v 0.653516 0.000000 -0.042578
v 0.878516 0.030469 -0.226953
v 0.694922 -0.000000 0.022656
v 0.717969 0.000000 -0.027344
v 1.117969 0.087500 0.039453
v 0.332031 0.119922 -0.373828
v -0.712500 0.000000 -0.007422
v -0.760938 0.000000 -0.003906
v -0.777735 0.035938 -0.133594
v -1.130859 0.034766 0.010156
v -0.778906 0.000000 -0.000781
v -0.839453 0.000000 -0.001563
v -0.803516 0.048828 -0.114063
v -1.051172 0.018750 -0.082813
v -0.648047 0.000000 -0.013672
v -0.714063 0.000000 -0.016406
v -0.659766 0.161328 -0.138672
v 0.023438 0.000000 -0.003516
v 0.100391 0.000000 -0.006641
v 0.089844 0.041016 0.507422
v -0.758203 0.079297 0.325000
v -0.499219 0.000000 -0.007031
v -0.410938 -0.000000 0.002734
v -0.581250 0.062109 0.258594
v -0.546875 0.099219 0.409375
vt 0.0459 0.9912
vt 0.9502 0.9883
vt 0.0166 0.4834
vt 0.9873 0.4883
vt 0.5283 0.0078
vt 0.0498 0.2256
vt 0.9600 0.2393
vt 0.9502 0.9883
vt 0.0459 0.9912
vt 0.0459 0.9912
vt 0.9502 0.9883
vt 0.0107 0.4834
vt 0.9932 0.4883
vt 0.5283 0.0078
vt 0.0166 0.4834
vt 0.9873 0.4883
vt 0.9502 0.9883
vt 0.0459 0.9912
vt 0.5283 0.0078
vt 0.0166 0.4834
vt 0.9873 0.4883
vt 0.9502 0.9883
vt 0.0459 0.9912
vt 0.0459 0.9912
vt 0.9502 0.9883
vt 0.0166 0.4834
vt 0.9873 0.4883
vt 0.5283 0.0078
vt 0.0166 0.4834
vt 0.9873 0.4883
vt 0.9502 0.9883
vt 0.0459 0.9912
vt 0.0459 0.9912
vt 0.9502 0.9883
vt 0.0166 0.4834
vt 0.9873 0.4883
vt 0.0459 0.9912
vt 0.9502 0.9883
vt 0.0166 0.4834
vt 0.9873 0.4883
vt 0.9873 0.4883
vt 0.0166 0.4834
vt 0.9502 0.9883
vt 0.0459 0.9912
vt 0.5283 0.0078
vt 0.0166 0.4834
vt 0.9873 0.4883
vt 0.9502 0.9883
vt 0.0459 0.9912
vt 0.0459 0.9912
vt 0.9502 0.9883
vt 0.0166 0.4834
vt 0.9873 0.4883
vt 0.0459 0.9912
vt 0.9502 0.9883
vt 0.0166 0.4834
vt 0.9873 0.4883
vt 0.5283 0.0078
vt 0.0107 0.4834
vt 0.9932 0.4883
vt 0.9502 0.9883
vt 0.0459 0.9912
vt 0.9873 0.4883
vt 0.0166 0.4834
vt 0.9502 0.9883
vt 0.0459 0.9912
vt 0.0459 0.9912
vt 0.9502 0.9883
vt 0.0166 0.4834
vt 0.9873 0.4883
vt 0.0459 0.9912
vt 0.9502 0.9883
vt 0.0107 0.4834
vt 0.9932 0.4883
vt 0.0459 0.9912
vt 0.9502 0.9883
vt 0.0107 0.4834
vt 0.9932 0.4883
vt 0.0459 0.9912
vt 0.9502 0.9883
vt 0.0166 0.4834
vt 0.9873 0.4883
vt 0.5283 0.0078
vt 0.0498 0.2256
vt 0.9600 0.2393
vt 0.9502 0.9883
vt 0.0459 0.9912
vt 0.9873 0.4883
vt 0.0166 0.4834
vt 0.9502 0.9883
vt 0.0459 0.9912
vt 0.5283 0.0078
vt 0.0166 0.4834
vt 0.9873 0.4883
vt 0.9502 0.9883
vt 0.0459 0.9912
vt 0.0459 0.9912
vt 0.9502 0.9883
vt 0.0166 0.4834
vt 0.9873 0.4883
vt 0.0459 0.9912
vt 0.9502 0.9883
vt 0.0166 0.4834
vt 0.9873 0.4883
vt 0.9502 0.9883
vt 0.5283 0.0078
vt 0.0459 0.9912
vt 0.5283 0.0078
vt 0.5283 0.0078
vt 0.5283 0.0078
vt 0.5283 0.0078
vt 0.5283 0.0078
vt 0.5283 0.0078
vt 0.5283 0.0078
vt 0.9502 0.9883
vt 0.5283 0.0078
vt 0.0459 0.9912
vt 0.9502 0.9883
vt 0.5283 0.0078
vt 0.0459 0.9912
vt 0.9502 0.9883
vt 0.5283 0.0078
vt 0.0459 0.9912
vt 0.9502 0.9883
vt 0.5283 0.0078
vt 0.0459 0.9912
vt 0.9502 0.9883
vt 0.5283 0.0078
vt 0.0459 0.9912
vt 0.9502 0.9883
vt 0.5283 0.0078
vt 0.0459 0.9912
vt 0.9502 0.9883
vt 0.5283 0.0078
vt 0.0459 0.9912
vt 0.9502 0.9883
vt 0.5283 0.0078
vt 0.0459 0.9912
vt 0.9502 0.9883
vt 0.5283 0.0078
vt 0.0459 0.9912
vt 0.9502 0.9883
vt 0.5283 0.0078
vt 0.0459 0.9912
vt 0.5283 0.0078
vt 0.9502 0.9883
vt 0.5283 0.0078
vt 0.0459 0.9912
vt 0.5283 0.0078
vt 0.9502 0.9883
vt 0.5283 0.0078
vt 0.0459 0.9912
vt 0.5283 0.0078
vt 0.5283 0.0078
vt 0.9502 0.9883
vt 0.5283 0.0078
vt 0.0459 0.9912
vt 0.9502 0.9883
vt 0.5283 0.0078
vt 0.0459 0.9912
vt 0.9502 0.9883
vt 0.5283 0.0078
vt 0.0459 0.9912
vt 0.5283 0.0078
vt 0.9502 0.9883
vt 0.5283 0.0078
vt 0.0459 0.9912
vt 0.5283 0.0078
vt 0.9502 0.9883
vt 0.5283 0.0078
vt 0.0459 0.9912
vt 0.5283 0.0078
vt 0.9502 0.9883
vt 0.5283 0.0078
vt 0.0459 0.9912
vt 0.9502 0.9883
vt 0.5283 0.0078
vt 0.0459 0.9912
vt 0.5283 0.0078
vt 0.9502 0.9883
vt 0.5283 0.0078
vt 0.0459 0.9912
vt 0.5283 0.0078
vn 0.1934 0.4393 0.8773
vn 0.1928 0.4388 0.8776
vn 0.0597 0.9774 0.2028
vn -0.0438 0.9917 -0.1208
vn -0.0407 0.9917 -0.1221
vn -0.0152 0.9268 -0.3752
vn -0.0200 0.9273 -0.3737
vn -0.0530 0.9696 0.2391
vn 0.1335 0.7873 -0.6019
vn 0.1345 0.7872 -0.6019
vn 0.0118 0.9690 0.2467
vn -0.0302 0.7753 -0.6309
vn -0.0244 0.7735 -0.6334
vn -0.0195 0.5242 0.8514
vn -0.0183 0.5248 0.8510
vn -0.0289 0.9958 -0.0871
vn 0.1426 0.8915 0.4300
vn 0.1406 0.8910 0.4317
vn 0.0198 0.6006 0.7993
vn 0.0218 0.6016 0.7985
vn 0.0934 0.5412 0.8357
vn 0.0957 0.5427 0.8344
vn 0.2409 0.6627 0.7091
vn 0.2392 0.6612 0.7111
vn -0.0353 0.9801 0.1953
vn 0.1032 0.8633 -0.4941
vn 0.0999 0.8638 -0.4939
vn 0.2617 0.8126 -0.5208
vn 0.2605 0.8128 -0.5211
vn 0.1714 0.7506 0.6381
vn 0.1745 0.7519 0.6357
vn 0.2504 0.8480 0.4670
vn -0.3261 0.7238 -0.6081
vn -0.3210 0.7186 -0.6169
vn -0.2428 0.7927 0.5591
vn -0.2446 0.7922 0.5591
vn -0.1763 0.4436 0.8787
vn -0.1791 0.4421 0.8789
vn 0.1069 0.9306 0.3500
vn 0.1110 0.9307 0.3485
vn 0.4175 0.5845 0.6957
vn 0.4310 0.5962 0.6773
vn -0.6752 0.7372 0.0273
vn -0.6748 0.7374 0.0293
vn -0.1267 0.8163 0.5636
vn 0.1173 0.8448 -0.5220
vn 0.1136 0.8444 -0.5236
vn 0.2593 0.8075 -0.5298
vn 0.2573 0.8078 -0.5303
vn -0.0567 0.8764 -0.4783
vn 0.0960 0.5786 0.8099
vn 0.0945 0.5777 0.8107
vn 0.7044 0.7052 -0.0808
vn 0.7038 0.7054 -0.0849
vn 0.1114 0.6708 -0.7333
vn 0.1126 0.6706 -0.7332
vn 0.0278 0.9117 0.4098
vn -0.0497 0.9762 -0.2112
vn 0.0122 0.9737 0.2273
vn -0.0174 0.9883 -0.1515
vn 0.0087 0.9149 -0.4036
vn -0.1222 0.9250 -0.3598
vn -0.0041 0.9888 -0.1490
vn 0.0381 0.9786 -0.2024
vn 0.0502 0.9492 -0.3107
vn 0.0518 0.9869 0.1530
vn -0.0541 0.9789 0.1969
vn -0.0709 0.9850 -0.1571
vn 0.0444 0.9944 0.0963
vn -0.0310 0.9593 -0.2806
vn -0.0190 0.9955 0.0923
vn 0.0400 0.9925 -0.1151
vn 0.0391 0.9197 -0.3907
vn 0.0250 0.9919 -0.1248
vn 0.0934 0.9721 -0.2150
vn 0.0405 0.9883 0.1471
vn -0.0755 0.9686 -0.2369
vn -0.1758 0.9060 0.3851
vn -0.1155 0.9661 0.2310
vn 0.2760 0.9611 -0.0120
vn -0.0507 0.9217 -0.3847
vn -0.0307 0.9915 0.1264
vn -0.1982 0.9759 -0.0914
vn -0.0252 0.9955 -0.0917
vn 0.0192 0.9641 0.2647
vn -0.4274 0.9026 0.0516
vn -0.0051 0.9179 0.3968
vn -0.3754 0.7150 -0.5899
vn -0.0328 0.6107 0.7912
vn -0.0032 0.9968 -0.0796
vn -0.0509 0.9420 0.3318
vn 0.0244 0.9751 -0.2205
vn -0.0646 0.9891 0.1320
usemtl None
s 1
f 1/1/1 3/2/1 2/3/1
f 2/3/2 3/2/2 4/4/2
f 5/5/3 7/6/3 6/7/3
f 6/7/4 7/6/4 8/8/4
f 7/6/5 9/9/5 8/8/5
f 10/10/6 12/11/6 11/12/6
f 11/12/7 12/11/7 13/13/7
f 14/14/8 16/15/8 15/16/8
f 15/16/9 16/15/9 17/17/9
f 16/15/10 18/18/10 17/17/10
f 19/19/11 21/20/11 20/21/11
f 20/21/12 21/20/12 22/22/12
f 21/20/13 23/23/13 22/22/13
f 24/24/14 26/25/14 25/26/14
f 25/26/15 26/25/15 27/27/15
f 28/28/16 30/29/16 29/30/16
f 29/30/17 30/29/17 31/31/17
f 30/29/18 32/32/18 31/31/18
f 33/33/19 35/34/19 34/35/19
f 34/35/20 35/34/20 36/36/20
f 37/37/21 39/38/21 38/39/21
f 38/39/22 39/38/22 40/40/22
f 41/41/23 43/42/23 42/43/23
f 42/43/24 43/42/24 44/44/24
f 45/45/25 47/46/25 46/47/25
f 46/47/26 47/46/26 48/48/26
f 47/46/27 49/49/27 48/48/27
f 50/50/28 52/51/28 51/52/28
f 51/52/29 52/51/29 53/53/29
f 54/54/30 56/55/30 55/56/30
f 55/56/31 56/55/31 57/57/31
f 58/58/32 60/59/32 59/60/32
f 59/60/33 60/59/33 61/61/33
f 60/59/34 62/62/34 61/61/34
f 63/63/35 65/64/35 64/65/35
f 64/65/36 65/64/36 66/66/36
f 67/67/37 69/68/37 68/69/37
f 68/69/38 69/68/38 70/70/38
f 71/71/39 73/72/39 72/73/39
f 72/73/40 73/72/40 74/74/40
f 75/75/41 77/76/41 76/77/41
f 76/77/42 77/76/42 78/78/42
f 79/79/43 81/80/43 80/81/43
f 80/81/44 81/80/44 82/82/44
f 83/83/45 85/84/45 84/85/45
f 84/85/46 85/84/46 86/86/46
f 85/84/47 87/87/47 86/86/47
f 88/88/48 90/89/48 89/90/48
f 89/90/49 90/89/49 91/91/49
f 92/92/50 94/93/50 93/94/50
f 93/94/51 94/93/51 95/95/51
f 94/93/52 96/96/52 95/95/52
f 97/97/53 99/98/53 98/99/53
f 98/99/54 99/98/54 100/100/54
f 101/101/55 103/102/55 102/103/55
f 102/103/56 103/102/56 104/104/56
f 105/105/57 107/106/57 106/107/57
f 4/4/58 108/108/58 2/3/58
f 13/13/59 109/109/59 11/12/59
f 40/40/60 110/110/60 38/39/60
f 27/27/61 111/111/61 25/26/61
f 41/41/62 112/112/62 43/42/62
f 36/36/63 113/113/63 34/35/63
f 70/70/64 114/114/64 68/69/64
f 115/115/65 117/116/65 116/117/65
f 118/118/66 120/119/66 119/120/66
f 121/121/67 123/122/67 122/123/67
f 124/124/68 126/125/68 125/126/68
f 127/127/69 129/128/69 128/129/69
f 130/130/70 132/131/70 131/132/70
f 133/133/71 135/134/71 134/135/71
f 136/136/72 138/137/72 137/138/72
f 139/139/73 141/140/73 140/141/73
f 142/142/74 144/143/74 143/144/74
f 63/63/75 145/145/75 65/64/75
f 146/146/76 148/147/76 147/148/76
f 74/74/77 149/149/77 72/73/77
f 150/150/78 152/151/78 151/152/78
f 53/53/79 153/153/79 51/52/79
f 82/82/80 154/154/80 80/81/80
f 155/155/81 157/156/81 156/157/81
f 158/158/82 160/159/82 159/160/82
f 161/161/83 163/162/83 162/163/83
f 57/57/84 164/164/84 55/56/84
f 165/165/85 167/166/85 166/167/85
f 100/100/86 168/168/86 98/99/86
f 169/169/87 171/170/87 170/171/87
f 78/78/88 172/172/88 76/77/88
f 173/173/89 175/174/89 174/175/89
f 176/176/90 178/177/90 177/178/90
f 104/104/91 179/179/91 102/103/91
f 180/180/92 182/181/92 181/182/92
f 88/88/93 183/183/93 90/89/93
