# Created by MKDS Course Modifier
mtllib Mistralton City House.mtl
g polygon0
usemtl window
v -19.3125 17.51563 30.12891
v -7.6875 17.51563 30.12891
v -7.6875 32.89453 30.12891
v -19.3125 32.89453 30.12891
v -4.621094 46.71875 28.66016
v 4.628906 46.71875 28.66016
v 4.628906 58.95703 28.66016
v -4.621094 58.95703 28.66016
v -29.17969 17.76172 -8.773438
v -29.17969 17.76172 9
v -29.17969 33.11328 9
v -29.17969 33.11328 -8.773438
v -29.17969 46.05469 -5.316406
v -29.17969 46.05469 5.542969
v -29.17969 58.53906 5.542969
v -29.17969 58.53906 -5.316406
v 29.17969 17.76172 -8.773438
v 29.17969 33.11328 -8.773438
v 29.17969 33.11328 9
v 29.17969 17.76172 9
vn 0 0 0.9980469
vn 0 0 0.9980469
vn 0 0 0.9980469
vn 0 0 0.9980469
vn 0 0 0.9980469
vn 0 0 0.9980469
vn 0 0 0.9980469
vn 0 0 0.9980469
vn -1 0 0
vn -1 0 0
vn -1 0 0
vn -1 0 0
vn -1 0 0
vn -1 0 0
vn -1 0 0
vn -1 0 0
vn 0.9980469 0 0
vn 0.9980469 0 0
vn 0.9980469 0 0
vn 0.9980469 0 0
vt 0 -0.9882813
vt 1 -0.9882813
vt 1 -0.0078125
vt 0 -0.0078125
vt 0 -0.9882813
vt 1 -0.9882813
vt 1 -0.0078125
vt 0 -0.0078125
vt 0 -0.9882813
vt 1 -0.9882813
vt 1 -0.0078125
vt 0 -0.0078125
vt 0 -0.9882813
vt 1 -0.9882813
vt 1 -0.0078125
vt 0 -0.0078125
vt 0 -0.9882813
vt 0 -0.0078125
vt 1 -0.0078125
vt 1 -0.9882813
f 1/1/1 2/2/2 3/3/3 4/4/4
f 5/5/5 6/6/6 7/7/7 8/8/8
f 9/9/9 10/10/10 11/11/11 12/12/12
f 13/13/13 14/14/14 15/15/15 16/16/16
f 17/17/17 18/18/18 19/19/19 20/20/20
g polygon1
usemtl shadow
v 11.98828 1.796875 41.59375
v 14.98828 1.796875 41.59375
v -24.80078 1.796875 30.09375
v 31.16016 1.796875 30.09375
v -24.80078 1.796875 -32.49609
v 31.16016 1.796875 -32.49609
vn 0 0.9980469 0
vn 0 0.9980469 0
vn 0 0.9980469 0
vn 0 0.9980469 0
vn 0 0.9980469 0
vn 0 0.9980469 0
vt 0.625 -0.65625
vt 0.625 -0.703125
vt 0.625 -0.8515625
vt 0.625 -0.8515625
vt 0.625 -0.8515625
vt 0.625 -0.8515625
f 21/21/21 22/22/22 23/23/23
f 22/22/22 24/24/24 23/23/23
f 23/23/23 24/24/24 25/25/25
f 24/24/24 26/26/26 25/25/25
v 11.98828 1.796875 48.59375
v 11.98828 1.796875 41.59375
v -31.80078 1.796875 34.09375
v -31.80078 1.796875 34.09375
vn 0 0.9980469 0
vn 0 0.9980469 0
vn 0 0.9980469 0
vn 0 0.9980469 0
vt 1 -0.125
vt 1 -0.8515625
vt 0.5 -0.125
vt 0 -0.125
f 27/27/27 28/28/28 29/29/29
f 28/28/28 30/30/30 29/29/29
v 31.16016 1.796875 -32.49609
v 31.16016 1.796875 -40.49609
v -31.80078 1.796875 -40.49609
v -24.80078 1.796875 -32.49609
v 31.16016 1.796875 30.09375
v 14.98828 1.796875 41.59375
v 14.98828 1.796875 48.59375
v 38.16016 1.796875 31.59375
v 11.98828 1.796875 48.59375
v 14.98828 1.796875 48.59375
v 14.98828 1.796875 41.59375
v 11.98828 1.796875 41.59375
v 38.16016 1.796875 31.59375
v 38.16016 1.796875 -24.49609
v 31.16016 1.796875 -32.49609
v 31.16016 1.796875 30.09375
v -31.80078 1.796875 34.09375
v -24.80078 1.796875 30.09375
v -24.80078 1.796875 -32.49609
v -31.80078 1.796875 -40.49609
vn 0 0.9980469 0
vn 0 0.9980469 0
vn 0 0.9980469 0
vn 0 0.9980469 0
vn 0 0.9980469 0
vn 0 0.9980469 0
vn 0 0.9980469 0
vn 0 0.9980469 0
vn 0 0.9980469 0
vn 0 0.9980469 0
vn 0 0.9980469 0
vn 0 0.9980469 0
vn 0 0.9980469 0
vn 0 0.9980469 0
vn 0 0.9980469 0
vn 0 0.9980469 0
vn 0 0.9980469 0
vn 0 0.9980469 0
vn 0 0.9980469 0
vn 0 0.9980469 0
vt 0 -0.8515625
vt 0 -0.125
vt 1 -0.125
vt 1 -0.8515625
vt 1 -0.8515625
vt 0 -0.8515625
vt 0 -0.125
vt 0.625 -0.125
vt 0 -0.125
vt 1 -0.125
vt 1 -0.8515625
vt 0 -0.8515625
vt 1.921875 -0.125
vt 1 -0.125
vt 1 -0.8515625
vt 1.921875 -0.8515625
vt 0.625 -0.125
vt 0.625 -0.8515625
vt 0.625 -0.8515625
vt 0.625 -0.125
f 31/31/31 32/32/32 33/33/33 34/34/34
f 35/35/35 36/36/36 37/37/37 38/38/38
f 39/39/39 40/40/40 41/41/41 42/42/42
f 43/43/43 44/44/44 45/45/45 46/46/46
f 47/47/47 48/48/48 49/49/49 50/50/50
v 31.16016 1.796875 -32.49609
v 38.16016 1.796875 -24.49609
v 31.16016 1.796875 -40.49609
v -24.80078 1.796875 30.09375
v -31.80078 1.796875 34.09375
v 11.98828 1.796875 41.59375
vn 0 0.9980469 0
vn 0 0.9980469 0
vn 0 0.9980469 0
vn 0 0.9980469 0
vn 0 0.9980469 0
vn 0 0.9980469 0
vt 3.476563 -0.5078125
vt 4.695313 -0.125
vt 3.476563 -0.125
vt 0 -0.8515625
vt 0 -0.125
vt 1 -0.8515625
f 51/51/51 52/52/52 53/53/53
f 54/54/54 55/55/55 56/56/56
g polygon2
usemtl h2
v -4 33.63672 28
v -4 33.63672 35.4375
v -4 36.92969 35.4375
v -4 41.37109 28
v 20 33.63672 35.4375
v 20 33.63672 28
v 20 41.37109 28
v 20 36.92969 35.4375
v -4 36.92969 35.4375
v 20 36.92969 35.4375
v 20 41.37109 28
v -4 41.37109 28
v -4 33.63672 35.4375
v 20 33.63672 35.4375
v 20 36.92969 35.4375
v -4 36.92969 35.4375
v 2.382813 67.94922 34.02344
v 0 62.09375 34.02344
v 29.08203 42.09375 34.02344
v 31.69531 47.14063 34.02344
v -2.378906 67.94922 34.02344
v 2.382813 67.94922 34.02344
v 2.382813 67.94922 -33.92578
v -2.378906 67.94922 -33.92578
v 31.69531 47.14063 34.02344
v 29.08203 42.09375 34.02344
v 34.91797 42.09375 34.02344
v 34.91797 47.09766 34.02344
v 31.69531 47.14063 -33.92578
v 31.69531 47.14063 34.02344
v 34.91797 47.09766 34.02344
v 34.91797 47.09766 -33.92578
v -31.67969 47.14063 34.02344
v -31.67969 47.14063 -33.92578
v -34.91797 47.09766 -33.92578
v -34.91797 47.09766 34.02344
v -29.0625 42.09375 34.02344
v -31.67969 47.14063 34.02344
v -34.91797 47.09766 34.02344
v -34.91797 42.09375 34.02344
v 34.91797 42.09375 34.02344
v 34.91797 42.10156 -33.92578
v 34.91797 47.09766 -33.92578
v 34.91797 47.09766 34.02344
v -34.91797 42.09375 -33.92578
v -34.91797 42.09375 34.02344
v -34.91797 47.09766 34.02344
v -34.91797 47.09766 -33.92578
v -2.378906 67.94922 34.02344
v -31.67969 47.14063 34.02344
v -29.0625 42.09375 34.02344
v 0 62.09375 34.02344
v 2.382813 67.94922 -33.92578
v 2.382813 67.94922 34.02344
v 31.69531 47.14063 34.02344
v 31.69531 47.14063 -33.92578
v -31.67969 47.14063 34.02344
v -2.378906 67.94922 34.02344
v -2.378906 67.94922 -33.92578
v -31.67969 47.14063 -33.92578
v -6.089844 63.58594 0
v -6.089844 56.91016 -8.628906
v -31.54297 56.91016 -8.628906
v -31.54297 63.58594 0
v -6.089844 56.91016 8.628906
v -6.089844 63.58594 0
v -31.54297 63.58594 0
v -31.54297 56.91016 8.628906
vn -1 0 0
vn -1 0 0
vn -1 0 0
vn -1 0 0
vn 0.9980469 0 0
vn 0.9980469 0 0
vn 0.9980469 0 0
vn 0.9980469 0 0
vn 0 0.859375 0.5117188
vn 0 0.859375 0.5117188
vn 0 0.859375 0.5117188
vn 0 0.859375 0.5117188
vn 0 0 0.9980469
vn 0 0 0.9980469
vn 0 0 0.9980469
vn 0 0 0.9980469
vn 0 0 0.9980469
vn 0 0 0.9980469
vn 0 0 0.9980469
vn 0 0 0.9980469
vn 0 0.9980469 0
vn 0 0.9980469 0
vn 0 0.9980469 0
vn 0 0.9980469 0
vn 0 0 0.9980469
vn 0 0 0.9980469
vn 0 0 0.9980469
vn 0 0 0.9980469
vn 0 0.9980469 0
vn 0 0.9980469 0
vn 0 0.9980469 0
vn 0 0.9980469 0
vn 0 0.9980469 0
vn 0 0.9980469 0
vn 0 0.9980469 0
vn 0 0.9980469 0
vn 0 0 0.9980469
vn 0 0 0.9980469
vn 0 0 0.9980469
vn 0 0 0.9980469
vn 0.9980469 0 0
vn 0.9980469 0 0
vn 0.9980469 0 0
vn 0.9980469 0 0
vn -1 0 0
vn -1 0 0
vn -1 0 0
vn -1 0 0
vn 0 0 0.9980469
vn 0 0 0.9980469
vn 0 0 0.9980469
vn 0 0 0.9980469
vn 0.578125 0.8164063 0
vn 0.578125 0.8164063 0
vn 0.578125 0.8164063 0
vn 0.578125 0.8164063 0
vn -0.578125 0.8144531 0
vn -0.578125 0.8144531 0
vn -0.578125 0.8144531 0
vn -0.578125 0.8144531 0
vn 0 0.7910156 -0.6113281
vn 0 0.7910156 -0.6113281
vn 0 0.7910156 -0.6113281
vn 0 0.7910156 -0.6113281
vn 0 0.7910156 0.6113281
vn 0 0.7910156 0.6113281
vn 0 0.7910156 0.6113281
vn 0 0.7910156 0.6113281
vt 0.7148438 -0.9853516
vt 0.140625 -0.9853516
vt 0.140625 -0.9365234
vt 0.7148438 -0.8710938
vt 0.140625 -0.9853516
vt 0.7109375 -0.9853516
vt 0.7109375 -0.8710938
vt 0.140625 -0.9365234
vt -1.054688 -0.2460938
vt 2.058594 -0.2460938
vt 2.058594 -0.1806641
vt -1.054688 -0.1806641
vt 0.375 -0.9882813
vt 0.6953125 -0.9882813
vt 0.6953125 -0.9335938
vt 0.375 -0.9335938
vt 0.296875 -0.9091797
vt 0.8046875 -0.9980469
vt -4.578125 -0.9980469
vt -5.035156 -0.9091797
vt 0.625 -0.1142578
vt 0.890625 -0.1142578
vt 0.890625 -0.08300781
vt 0.625 -0.08300781
vt 0.0859375 -0.9091797
vt 0.5429688 -0.9980469
vt 0.7695313 -0.9980469
vt 0.7695313 -0.9091797
vt 0.7929688 -0.5917969
vt 0.7929688 -0.6132813
vt 0.8242188 -0.6132813
vt 0.8242188 -0.5917969
vt 0.2070313 -0.6132813
vt 0.2070313 -0.5917969
vt 0.1757813 -0.5917969
vt 0.1757813 -0.6132813
vt 0.8828125 -0.9980469
vt 0.8867188 -0.9091797
vt 0.8359375 -0.9091797
vt 0.8359375 -0.9980469
vt 0.1679688 -0.9990234
vt 0.8320313 -0.9980469
vt 0.8320313 -0.9111328
vt 0.1679688 -0.9111328
vt 0.765625 -0.9990234
vt 0.234375 -0.9990234
vt 0.234375 -0.9111328
vt 0.765625 -0.9111328
vt 0.7460938 -0.9091797
vt 5.878906 -0.9091797
vt 5.382813 -0.9980469
vt 0.1992188 -0.9980469
vt 3.050781 0
vt -3.046875 0
vt -3.046875 -0.9023438
vt 3.050781 -0.9023438
vt 3.050781 -0.9023438
vt 3.050781 0
vt -3.046875 0
vt -3.046875 -0.9023438
vt 0.4765625 -0.1884766
vt 0.4765625 -0.7285156
vt 0.9453125 -0.7285156
vt 0.9453125 -0.1884766
vt 0.4765625 -0.7265625
vt 0.4765625 -0.1884766
vt 0.9453125 -0.1884766
vt 0.9453125 -0.7265625
f 57/57/57 58/58/58 59/59/59 60/60/60
f 61/61/61 62/62/62 63/63/63 64/64/64
f 65/65/65 66/66/66 67/67/67 68/68/68
f 69/69/69 70/70/70 71/71/71 72/72/72
f 73/73/73 74/74/74 75/75/75 76/76/76
f 77/77/77 78/78/78 79/79/79 80/80/80
f 81/81/81 82/82/82 83/83/83 84/84/84
f 85/85/85 86/86/86 87/87/87 88/88/88
f 89/89/89 90/90/90 91/91/91 92/92/92
f 93/93/93 94/94/94 95/95/95 96/96/96
f 97/97/97 98/98/98 99/99/99 100/100/100
f 101/101/101 102/102/102 103/103/103 104/104/104
f 105/105/105 106/106/106 107/107/107 108/108/108
f 109/109/109 110/110/110 111/111/111 112/112/112
f 113/113/113 114/114/114 115/115/115 116/116/116
f 117/117/117 118/118/118 119/119/119 120/120/120
f 121/121/121 122/122/122 123/123/123 124/124/124
v -2.378906 67.94922 34.02344
v 0 62.09375 34.02344
v 2.382813 67.94922 34.02344
vn 0 0 0.9980469
vn 0 0 0.9980469
vn 0 0 0.9980469
vt 0.7226563 -0.9091797
vt 0.5 -0.9980469
vt 0.2773438 -0.9091797
f 125/125/125 126/126/126 127/127/127
g polygon3
usemtl h1
v -0.0078125 4 8
v 0 36 8
v -0.00390625 4 20.96094
v 0.00390625 36 20.96094
v 0 4 27.98047
v 0.0078125 36 27.98047
vn 0.9980469 0 0
vn 0.9980469 0 0
vn 0.9980469 0 0
vn 0.9980469 0 0
vn 0.9980469 0 0
vn 0.9980469 0 0
vt 0.5722656 -0.7910156
vt 0.5722656 -0.7441406
vt 0.5722656 -0.7910156
vt 0.5722656 -0.7441406
vt 0.5722656 -0.7910156
vt 0.5722656 -0.7441406
f 128/128/128 129/129/129 130/130/130
f 129/129/129 131/131/131 130/130/130
f 130/130/130 131/131/131 132/132/132
f 131/131/131 133/133/133 132/132/132
v -23.78125 45.85156 30.71875
v -23.78125 40.34375 30.71875
v 0 45.85156 30.71875
v 0 40.34375 30.71875
v 23.78125 45.85156 30.71875
v 23.78125 40.34375 30.71875
vn 0 0 0.9980469
vn 0 0 0.9980469
vn 0 0 0.9980469
vn 0 0 0.9980469
vn 0 0 0.9980469
vn 0 0 0.9980469
vt 0.4960938 -0.04101563
vt 0.5390625 -0.04101563
vt 0.4960938 -0.4023438
vt 0.5390625 -0.4023438
vt 0.4960938 -0.0390625
vt 0.5390625 -0.0390625
f 134/134/134 135/135/135 136/136/136
f 135/135/135 137/137/137 136/136/136
f 136/136/136 137/137/137 138/138/138
f 137/137/137 139/139/139 138/138/138
v 16 36 8
v 15.99219 4 8
v 16 36 20.96094
v 15.99219 4 20.96094
v 16 36 27.98047
v 15.99219 4 27.98047
vn -1 0 0
vn -1 0 0
vn -1 0 0
vn -1 0 0
vn -1 0 0
vn -1 0 0
vt 0.6191406 -0.7441406
vt 0.6191406 -0.7910156
vt 0.6191406 -0.7441406
vt 0.6191406 -0.7910156
vt 0.6191406 -0.7441406
vt 0.6191406 -0.7910156
f 140/140/140 141/141/141 142/142/142
f 141/141/141 143/143/143 142/142/142
f 142/142/142 143/143/143 144/144/144
f 143/143/143 145/145/145 144/144/144
v -23.78125 45.85156 24.82422
v -23.78125 45.85156 30.71875
v 0 45.85156 24.82422
v 0 45.85156 30.71875
v 27.95313 45.85156 24.82422
v 23.78125 45.85156 30.71875
vn 0 0.9980469 0
vn 0 0.9980469 0
vn 0 0.9980469 0
vn 0 0.9980469 0
vn 0 0.9980469 0
vn 0 0.9980469 0
vt 0.5429688 -0.4335938
vt 0.5253906 -0.4335938
vt 0.5429688 -0.4726563
vt 0.5253906 -0.4726563
vt 0.5429688 -0.4335938
vt 0.5253906 -0.4335938
f 146/146/146 147/147/147 148/148/148
f 147/147/147 149/149/149 148/148/148
f 148/148/148 149/149/149 150/150/150
f 149/149/149 151/151/151 150/150/150
v -31.54297 56.91016 -8.628906
v -31.54297 47.25 -8.628906
v -31.54297 63.58594 0
v -31.54297 47.25 0
v -31.54297 56.91016 8.628906
v -31.54297 47.25 8.628906
vn -1 0 0
vn -1 0 0
vn -1 0 0
vn -1 0 0
vn -1 0 0
vn -1 0 0
vt 0.9980469 -0.5625
vt 0.9980469 -0.8066406
vt 0.796875 -0.3867188
vt 0.796875 -0.8066406
vt 0.9980469 -0.5625
vt 0.9980469 -0.8066406
f 152/152/152 153/153/153 154/154/154
f 153/153/153 155/155/155 154/154/154
f 154/154/154 155/155/155 156/156/156
f 155/155/155 157/157/157 156/156/156
v -23.55469 45.89063 27.98047
v 0.01171875 45.89063 27.98047
v 0.01171875 62.18359 27.98047
v 23.56641 45.89063 27.98047
vn 0 0 0.9980469
vn 0 0 0.9980469
vn 0 0 0.9980469
vn 0 0 0.9980469
vt 0.5039063 -0.8847656
vt 0.0703125 -0.8847656
vt 0.0703125 -0.2695313
vt 0.5019531 -0.8847656
f 158/158/158 159/159/159 160/160/160
f 159/159/159 161/161/161 160/160/160
v -0.00390625 4 20.96094
v 0 4 27.98047
v 15.99219 4 27.98047
v 15.99219 4 20.96094
v 16 4 28
v 16 4 32
v 16 33.63672 32
v 16 33.63672 28
v 20 4 32
v 20 4 28
v 20 33.63672 28
v 20 33.63672 32
v 16 4 32
v 20 4 32
v 20 33.63672 32
v 16 33.63672 32
v -4 4 28
v -4 4 32
v -4 33.63672 32
v -4 33.36719 28
v 0 4 32
v 0 4 28
v 0 33.63672 28
v 0 33.63672 32
v -4 4 32
v 0 4 32
v 0 33.63672 32
v -4 33.63672 32
v -5.113281 46.33984 23.5
v -5.113281 46.33984 29.54688
v -5.113281 59.12109 29.54688
v -5.113281 59.12109 23.5
v 5.113281 46.33984 29.54688
v 5.113281 46.33984 23.5
v 5.113281 59.12109 23.5
v 5.113281 59.12109 29.54688
v -5.113281 59.12109 29.54688
v 5.113281 59.12109 29.54688
v 5.113281 59.12109 23.5
v -5.113281 59.12109 23.5
v -5.113281 46.33984 29.54688
v 5.113281 46.33984 29.54688
v 5.113281 59.12109 29.54688
v -5.113281 59.12109 29.54688
v -20.26563 16.8125 24
v -20.26563 16.8125 32
v -20.26563 33.73047 32
v -20.26563 33.73047 24
v -20.26563 33.73047 32
v -6.730469 33.73047 32
v -6.730469 33.73047 24
v -20.26563 33.73047 24
v -23.69922 4 27.98047
v -4.003906 4 27.98047
v -3.996094 40.32422 27.98047
v -23.69141 40.32422 27.98047
v 24.15234 40.35156 27.98047
v 19.69922 40.35156 27.98047
v 19.72266 4 27.98047
v 24.14844 4 27.98047
v -6.730469 16.8125 32
v -6.730469 16.8125 24
v -6.730469 33.73047 24
v -6.730469 33.73047 32
v -20.26563 16.8125 32
v -6.730469 16.8125 32
v -6.730469 33.73047 32
v -20.26563 33.73047 32
v 29.99609 4 -32.03906
v 29.99609 45.89844 -32.03906
v 29.99609 45.89844 -24.06641
v 29.99609 4 -24.06641
v 29.99609 4 -24.06641
v 29.99609 45.89844 -24.06641
v 23.74609 45.89844 -24.06641
v 23.74609 4 -24.06641
v -29.99609 4 -32.03906
v -29.99609 4 -24.06641
v -29.99609 45.89844 -24.06641
v -29.99609 45.89844 -32.03906
v -29.99609 4 -24.06641
v -23.74609 4 -24.06641
v -23.74609 45.89844 -24.06641
v -29.99609 45.89844 -24.06641
v 29.99609 4 24
v 29.99609 45.89844 24
v 29.99609 45.89844 31.97266
v 29.99609 4 31.97266
v 29.99609 4 31.97266
v 29.99609 45.89844 31.97266
v 23.74609 45.89844 31.97266
v 23.74609 4 31.97266
v -29.99609 4 24
v -29.99609 4 31.97266
v -29.99609 45.89844 31.97266
v -29.99609 45.89844 24
v -23.74609 4 31.97266
v -23.74609 4 24
v -23.74609 45.89844 24
v -23.74609 45.89844 31.97266
v -29.99609 4 31.97266
v -23.74609 4 31.97266
v -23.74609 45.89844 31.97266
v -29.99609 45.89844 31.97266
v -0.0078125 4 8
v -0.00390625 4 20.96094
v 15.99219 4 20.96094
v 15.99219 4 8
v 15.99219 4 8
v 16 36 8
v 0 36 8
v -0.0078125 4 8
v -29.88672 17.23047 9.429688
v -27.19141 17.23047 9.429688
v -27.19141 34.15234 9.429688
v -29.88672 34.15234 9.429688
v -29.88672 34.15234 -9.429688
v -29.88672 34.15234 9.429688
v -27.19141 34.15234 9.429688
v -27.19141 34.15234 -9.429688
v -29.88672 17.23047 -9.429688
v -29.88672 17.23047 9.429688
v -29.88672 34.15234 9.429688
v -29.88672 34.15234 -9.429688
v 29.88672 17.23047 9.429688
v 29.88672 34.15234 9.429688
v 27.19141 34.15234 9.429688
v 27.19141 17.23047 9.429688
v -6.089844 47.20703 8.628906
v -6.089844 56.91016 8.628906
v -31.54297 56.91016 8.628906
v -31.54297 47.25 8.628906
v 29.88672 17.23047 -9.429688
v 29.88672 34.15234 -9.429688
v 29.88672 34.15234 9.429688
v 29.88672 17.23047 9.429688
v -28.00391 4 -24.83594
v -28.00391 4 24.83594
v -27.99609 44 24.83594
v -27.99609 44 -24.83594
v 27.99609 4 24.83594
v 27.99609 4 -24.83594
v 28.00391 44 -24.83594
v 28.00391 44 24.83594
v 23.74609 4 31.97266
v 23.74609 45.89844 31.97266
v 23.82031 45.89844 24
v 23.82031 4 24
v 29.88672 34.15234 -9.429688
v 27.19141 34.15234 -9.429688
v 27.19141 34.15234 9.429688
v 29.88672 34.15234 9.429688
vn 0 0.9980469 0
vn 0 0.9980469 0
vn 0 0.9980469 0
vn 0 0.9980469 0
vn -1 0 0
vn -1 0 0
vn -1 0 0
vn -1 0 0
vn 0.9980469 0 0
vn 0.9980469 0 0
vn 0.9980469 0 0
vn 0.9980469 0 0
vn 0 0 0.9980469
vn 0 0 0.9980469
vn 0 0 0.9980469
vn 0 0 0.9980469
vn -1 0 0
vn -1 0 0
vn -1 0 0
vn -1 0 0
vn 0.9980469 0 0
vn 0.9980469 0 0
vn 0.9980469 0 0
vn 0.9980469 0 0
vn 0 0 0.9980469
vn 0 0 0.9980469
vn 0 0 0.9980469
vn 0 0 0.9980469
vn -1 0 0
vn -1 0 0
vn -1 0 0
vn -1 0 0
vn 0.9980469 0 0
vn 0.9980469 0 0
vn 0.9980469 0 0
vn 0.9980469 0 0
vn 0 0.9980469 0
vn 0 0.9980469 0
vn 0 0.9980469 0
vn 0 0.9980469 0
vn 0 0 0.9980469
vn 0 0 0.9980469
vn 0 0 0.9980469
vn 0 0 0.9980469
vn -1 0 0
vn -1 0 0
vn -1 0 0
vn -1 0 0
vn 0 0.9980469 0
vn 0 0.9980469 0
vn 0 0.9980469 0
vn 0 0.9980469 0
vn 0 0 0.9980469
vn 0 0 0.9980469
vn 0 0 0.9980469
vn 0 0 0.9980469
vn 0 0 0.9980469
vn 0 0 0.9980469
vn 0 0 0.9980469
vn 0 0 0.9980469
vn 0.9980469 0 0
vn 0.9980469 0 0
vn 0.9980469 0 0
vn 0.9980469 0 0
vn 0 0 0.9980469
vn 0 0 0.9980469
vn 0 0 0.9980469
vn 0 0 0.9980469
vn 0.9980469 0 0
vn 0.9980469 0 0
vn 0.9980469 0 0
vn 0.9980469 0 0
vn 0 0 0.9980469
vn 0 0 0.9980469
vn 0 0 0.9980469
vn 0 0 0.9980469
vn -1 0 0
vn -1 0 0
vn -1 0 0
vn -1 0 0
vn 0 0 0.9980469
vn 0 0 0.9980469
vn 0 0 0.9980469
vn 0 0 0.9980469
vn 0.9980469 0 0
vn 0.9980469 0 0
vn 0.9980469 0 0
vn 0.9980469 0 0
vn 0 0 0.9980469
vn 0 0 0.9980469
vn 0 0 0.9980469
vn 0 0 0.9980469
vn -1 0 0
vn -1 0 0
vn -1 0 0
vn -1 0 0
vn 0.9980469 0 0
vn 0.9980469 0 0
vn 0.9980469 0 0
vn 0.9980469 0 0
vn 0 0 0.9980469
vn 0 0 0.9980469
vn 0 0 0.9980469
vn 0 0 0.9980469
vn 0 0.9980469 0
vn 0 0.9980469 0
vn 0 0.9980469 0
vn 0 0.9980469 0
vn 0 0 0.9980469
vn 0 0 0.9980469
vn 0 0 0.9980469
vn 0 0 0.9980469
vn 0 0 0.9980469
vn 0 0 0.9980469
vn 0 0 0.9980469
vn 0 0 0.9980469
vn 0 0.9980469 0
vn 0 0.9980469 0
vn 0 0.9980469 0
vn 0 0.9980469 0
vn -1 0 0
vn -1 0 0
vn -1 0 0
vn -1 0 0
vn 0 0 0.9980469
vn 0 0 0.9980469
vn 0 0 0.9980469
vn 0 0 0.9980469
vn 0 0 0.9980469
vn 0 0 0.9980469
vn 0 0 0.9980469
vn 0 0 0.9980469
vn 0.9980469 0 0
vn 0.9980469 0 0
vn 0.9980469 0 0
vn 0.9980469 0 0
vn -1 0 0
vn -1 0 0
vn -1 0 0
vn -1 0 0
vn 0.9980469 0 0
vn 0.9980469 0 0
vn 0.9980469 0 0
vn 0.9980469 0 0
vn -1 0 0
vn -1 0 0
vn -1 0 0
vn -1 0 0
vn 0 0.9980469 0
vn 0 0.9980469 0
vn 0 0.9980469 0
vn 0 0.9980469 0
vt 0.5683594 -0.8164063
vt 0.5683594 -0.9980469
vt 0.9980469 -0.9980469
vt 0.9980469 -0.8164063
vt 0.4941406 -0.234375
vt 0.4941406 -0.234375
vt 0.4941406 -0.0078125
vt 0.4941406 -0.0078125
vt 0.5390625 -0.234375
vt 0.5390625 -0.234375
vt 0.5390625 -0.0078125
vt 0.5390625 -0.0078125
vt 0.4941406 -0.234375
vt 0.5390625 -0.234375
vt 0.5390625 -0.0078125
vt 0.4941406 -0.0078125
vt 0.4941406 -0.234375
vt 0.4941406 -0.234375
vt 0.4941406 -0.005859375
vt 0.4941406 -0.2167969
vt 0.5429688 -0.234375
vt 0.5429688 -0.234375
vt 0.5429688 -0.005859375
vt 0.5429688 -0.005859375
vt 0.4941406 -0.234375
vt 0.5429688 -0.234375
vt 0.5429688 -0.005859375
vt 0.4941406 -0.005859375
vt 0.6289063 -0.3710938
vt 0.6289063 -0.3710938
vt 0.6289063 -0.0078125
vt 0.6289063 -0.0078125
vt 0.9941406 -0.3710938
vt 0.9941406 -0.3710938
vt 0.9941406 -0.0078125
vt 0.9941406 -0.0078125
vt 0.6289063 -0.0078125
vt 0.9941406 -0.0078125
vt 0.9941406 -0.0078125
vt 0.6289063 -0.0078125
vt 0.6289063 -0.3710938
vt 0.9941406 -0.3710938
vt 0.9941406 -0.0078125
vt 0.6289063 -0.0078125
vt 0.6269531 -0.3730469
vt 0.6269531 -0.3730469
vt 0.6269531 -0.009765625
vt 0.6269531 -0.009765625
vt 0.6269531 -0.009765625
vt 0.9941406 -0.009765625
vt 0.9941406 -0.009765625
vt 0.6269531 -0.009765625
vt 0 -1
vt 0.46875 -1
vt 0.46875 0
vt 0 0
vt 0.1308594 0
vt 0 0
vt 0.001953125 -1
vt 0.1308594 -1
vt 0.9941406 -0.3730469
vt 0.9941406 -0.3730469
vt 0.9941406 -0.009765625
vt 0.9941406 -0.009765625
vt 0.6269531 -0.3730469
vt 0.9941406 -0.3730469
vt 0.9941406 -0.009765625
vt 0.6269531 -0.009765625
vt 0.5371094 -0.4023438
vt 0.5371094 -0.00390625
vt 0.5019531 -0.00390625
vt 0.5019531 -0.4023438
vt 0.5390625 -0.4023438
vt 0.5390625 -0.00390625
vt 0.4941406 -0.00390625
vt 0.4941406 -0.4023438
vt 0.5371094 -0.4023438
vt 0.5019531 -0.4023438
vt 0.5019531 -0.00390625
vt 0.5371094 -0.00390625
vt 0.5390625 -0.4023438
vt 0.4941406 -0.4023438
vt 0.4941406 -0.00390625
vt 0.5390625 -0.00390625
vt 0.5371094 -0.4023438
vt 0.5371094 -0.00390625
vt 0.5019531 -0.00390625
vt 0.5019531 -0.4023438
vt 0.5390625 -0.4023438
vt 0.5390625 -0.00390625
vt 0.4941406 -0.00390625
vt 0.4941406 -0.4023438
vt 0.4941406 -0.4023438
vt 0.5292969 -0.4023438
vt 0.5292969 -0.00390625
vt 0.4941406 -0.00390625
vt 0.5390625 -0.4023438
vt 0.5390625 -0.4023438
vt 0.5390625 -0.00390625
vt 0.5390625 -0.00390625
vt 0.4941406 -0.4023438
vt 0.5390625 -0.4023438
vt 0.5390625 -0.00390625
vt 0.4941406 -0.00390625
vt 0.5722656 -0.6777344
vt 0.5722656 -0.7246094
vt 0.6210938 -0.7246094
vt 0.6210938 -0.6777344
vt 0.6191406 -0.7910156
vt 0.6191406 -0.7441406
vt 0.5722656 -0.7441406
vt 0.5722656 -0.7910156
vt 0.6308594 -0.3691406
vt 0.6308594 -0.3691406
vt 0.6308594 -0.00390625
vt 0.6308594 -0.00390625
vt 1 -0.00390625
vt 0.6308594 -0.00390625
vt 0.6308594 -0.00390625
vt 1 -0.00390625
vt 1 -0.3691406
vt 0.6308594 -0.3691406
vt 0.6308594 -0.00390625
vt 1 -0.00390625
vt 0.6308594 -0.3691406
vt 0.6308594 -0.00390625
vt 0.6308594 -0.00390625
vt 0.6308594 -0.3691406
vt 0.2128906 -0.2949219
vt 0.005859375 -0.2949219
vt 0.005859375 -0.3808594
vt 0.2128906 -0.3808594
vt 1 -0.3691406
vt 1 -0.00390625
vt 0.6308594 -0.00390625
vt 0.6308594 -0.3691406
vt 0.4628906 -1
vt 0 -1
vt 0 0
vt 0.4628906 0
vt 0 -1
vt 0.4628906 -1
vt 0.4628906 0
vt 0 0
vt 0.5390625 -0.4023438
vt 0.5390625 -0.00390625
vt 0.5390625 -0.00390625
vt 0.5390625 -0.4023438
vt 1 -0.00390625
vt 1 -0.00390625
vt 0.6308594 -0.00390625
vt 0.6308594 -0.00390625
f 162/162/162 163/163/163 164/164/164 165/165/165
f 166/166/166 167/167/167 168/168/168 169/169/169
f 170/170/170 171/171/171 172/172/172 173/173/173
f 174/174/174 175/175/175 176/176/176 177/177/177
f 178/178/178 179/179/179 180/180/180 181/181/181
f 182/182/182 183/183/183 184/184/184 185/185/185
f 186/186/186 187/187/187 188/188/188 189/189/189
f 190/190/190 191/191/191 192/192/192 193/193/193
f 194/194/194 195/195/195 196/196/196 197/197/197
f 198/198/198 199/199/199 200/200/200 201/201/201
f 202/202/202 203/203/203 204/204/204 205/205/205
f 206/206/206 207/207/207 208/208/208 209/209/209
f 210/210/210 211/211/211 212/212/212 213/213/213
f 214/214/214 215/215/215 216/216/216 217/217/217
f 218/218/218 219/219/219 220/220/220 221/221/221
f 222/222/222 223/223/223 224/224/224 225/225/225
f 226/226/226 227/227/227 228/228/228 229/229/229
f 230/230/230 231/231/231 232/232/232 233/233/233
f 234/234/234 235/235/235 236/236/236 237/237/237
f 238/238/238 239/239/239 240/240/240 241/241/241
f 242/242/242 243/243/243 244/244/244 245/245/245
f 246/246/246 247/247/247 248/248/248 249/249/249
f 250/250/250 251/251/251 252/252/252 253/253/253
f 254/254/254 255/255/255 256/256/256 257/257/257
f 258/258/258 259/259/259 260/260/260 261/261/261
f 262/262/262 263/263/263 264/264/264 265/265/265
f 266/266/266 267/267/267 268/268/268 269/269/269
f 270/270/270 271/271/271 272/272/272 273/273/273
f 274/274/274 275/275/275 276/276/276 277/277/277
f 278/278/278 279/279/279 280/280/280 281/281/281
f 282/282/282 283/283/283 284/284/284 285/285/285
f 286/286/286 287/287/287 288/288/288 289/289/289
f 290/290/290 291/291/291 292/292/292 293/293/293
f 294/294/294 295/295/295 296/296/296 297/297/297
f 298/298/298 299/299/299 300/300/300 301/301/301
f 302/302/302 303/303/303 304/304/304 305/305/305
f 306/306/306 307/307/307 308/308/308 309/309/309
f 310/310/310 311/311/311 312/312/312 313/313/313
