mtllib sobj_BBS.mtl

g 

usemtl tex_BBS.png

v -43.2802 11.522 9.1
vn -0.7716535 0.02362205 0.6377953
vt 0.0110749 0.177909
v 10.6888 16.607 9.1
vn 0.7716535 0.2598425 0.5826772
vt 0.98396 0.264207
v -43.6865 15.6986 9.1
vn -0.6771653 0.1496063 0.7165354
vt 0.00381979 0.22893
v 9.59414 4.62949 9.1
vn 0.1732284 0.02362205 0.984252
vt 0.972085 0.104632
v -43.6865 15.6986 5.11608
vn -0.7401575 0.3149606 -0.5984252
vt -0.00514172 0.22893
v -42.7742 5.33294 9.1
vn -0.07874016 -0.02362205 1
vt 0.0237036 0.107781
v -43.2802 11.522 5.11608
vn -0.7401575 0.1968504 -0.6456693
vt -0.00514172 0.177909
v -42.7742 5.33294 5.11608
vn -0.8110236 -0.1574803 -0.5669291
vt -0.000724834 0.109373
v -42.5719 17.7111 9.1
vn -0.007874016 0.1574803 0.984252
vt 0.02658 0.299784
v 10.6888 16.607 5.11608
vn 0.5748032 0.3779528 -0.7244095
vt 1.00379 0.264207
v 9.91488 18.4639 9.1
vn 0 0.01574803 1
vt 0.977139 0.298705
v -42.5719 17.7111 5.11608
vn -0.4566929 0.2755905 -0.8425197
vt 0.00221976 0.281983
v 9.59414 4.62949 5.11608
vn 0.4173228 -0.3700787 -0.8346457
vt 0.992013 0.0988628
v -43.4114 22.0456 9.1
vn -0.3937008 0.1653543 0.9055118
vt 0.0112299 0.349875
v 9.91488 18.4639 5.11608
vn 0.4330709 0.3228346 -0.8425197
vt 0.997902 0.29489
v -43.0378 24.5597 9.1
vn -0.6220472 0.07874016 0.7795275
vt 0.013021 0.38833
v -43.852 27.3763 9.1
vn -0.7086614 0.1811024 0.6771653
vt -0.0071888 0.452466
v -43.9374 30.1307 9.1
vn -0.8425197 0.2598425 0.4645669
vt -0.00148643 0.505023
v 10.2704 22.144 9.1
vn 0.3307087 0.04724409 0.9448819
vt 0.97951 0.357366
v 9.91488 18.4639 5.11608
vn 0.4330709 0.3228346 -0.8425197
vt 0.99277 0.319424
v 10.559 28.2247 9.1
vn 0.3622047 0.1023622 0.9291338
vt 0.984339 0.467108
v -43.0406 31.9946 9.1
vn -0.4173228 0.02362205 0.9055118
vt 0.0207426 0.540228
v 10.2704 22.144 5.11608
vn 0.4330709 0.2125984 -0.8740157
vt 0.993807 0.357366
v 9.80316 30.0528 9.1
vn 0.2755905 -0.01574803 0.9606299
vt 0.962874 0.504013
v 9.80316 30.0528 9.1
vn 0.2755905 -0.01574803 0.9606299
vt 0.962874 0.546344
v -43.629 38.6855 9.1
vn -0.7086614 -0.04724409 0.7086614
vt 0.0135667 0.654115
v 10.559 28.2247 5.11608
vn 0.7165354 0.2519685 -0.6535433
vt 1.00009 0.467108
v 10.5145 37.8568 9.1
vn 0.7716535 0.03149606 0.6377953
vt 0.998274 0.631896
v 9.80316 30.0528 5.11608
vn 0.6062992 0.06299213 -0.7952756
vt 0.990055 0.497498
v -43.8774 44.5 9.1
vn -0.4094488 0.3937008 0.8188976
vt 0.0140007 0.735446
v 9.77416 44.5 9.1
vn 0.5511811 0.6220472 0.5590551
vt 0.982942 0.735446
v -43.8774 44.5 5.11609
vn -0.6220472 0.3464567 -0.7007874
vt 0.0140007 0.735446
v 9.77416 44.5 5.11608
vn 0.6692913 0.4094488 -0.6220472
vt 0.982942 0.735446
v -10.78481 45.17268 15.37885
vn 0.007874016 0.984252 0.1574803
vt 1.09158 0.784876
v -10.48425 48.02734 -1.239525
vn -0.01574803 0.984252 0.1732284
vt 1.10704 1.00059
v -22.72546 45.08355 15.12885
vn -0.007874016 0.992126 0.1496063
vt 0.906641 0.784876
v -0.08128697 47.82592 -1.239525
vn 0.007874016 0.984252 0.1732284
vt 1.30973 1.00059
v -22.63729 44.92935 16.80708
vn -0.01574803 0.5826772 0.8110236
vt 0.907646 0.770444
v 0.2780972 44.97127 15.37885
vn 0.007874016 0.984252 0.1574803
vt 1.30973 0.784876
v -10.87027 44.90167 17.0537
vn 0 0.5984252 0.8031496
vt 1.09098 0.770444
v 0.2076354 44.70025 17.0537
vn 0.01574803 0.5826772 0.8110236
vt 1.30973 0.760694
v -10.87027 44.90167 17.0537
vn 0 0.5984252 0.8031496
vt 1.0899 0.760694
v -22.59789 47.82138 -1.239529
vn -0.01574803 0.984252 0.1574803
vt 0.893646 1.00059
v 11.18479 47.98088 -1.239529
vn 0.4409449 0.8818898 0.1496063
vt 1.49533 1.00059
v -10.87027 41.45995 16.5327
vn -0.01574803 -0.8110236 0.5905512
vt 1.0899 0.731162
v -22.62453 41.45995 16.28616
vn -0.01574803 -0.8110236 0.5905512
vt 0.907646 0.731162
v -33.37215 45.0009 15.12885
vn -0.01574803 0.984252 0.1574803
vt 0.692462 0.784876
v -33.50245 47.85555 -1.239529
vn -0.01574803 0.984252 0.1732284
vt 0.692462 1.00059
v 11.18479 45.12623 15.12885
vn 0.4409449 0.8818898 0.1496063
vt 1.49533 0.784876
v 11.18479 44.85521 16.72201
vn 0.5826772 0.472441 0.6614173
vt 1.49533 0.760694
v 0.2076354 41.45995 16.5327
vn 0.01574803 -0.8110236 0.5826772
vt 1.30973 0.731162
v -33.36622 44.72989 16.72201
vn -0.01574803 0.5748032 0.8188976
vt 0.692462 0.758818
v -22.63729 44.92935 16.80708
vn -0.01574803 0.5826772 0.8110236
vt 0.907646 0.758818
v -44.8513 47.54004 -1.239529
vn -0.7165354 0.6850393 0.1181102
vt 0.50192 1.00059
v 11.18479 44.58562 -1.760473
vn 0.7086614 -0.7007874 -0.1181102
vt 1.51597 1.00059
v 11.18479 41.45994 16.20108
vn 0.5905512 -0.6535433 0.472441
vt 1.51597 0.736331
v 0.2076354 41.45995 16.5327
vn 0.01574803 -0.8110236 0.5826772
vt 1.30973 0.733155
v -22.65006 42.45995 16.20108
vn 0 -0.8188976 0.5748032
vt 0.907646 0.732835
v -33.40284 42.45995 16.20108
vn 0 -0.8188976 0.5748032
vt 0.692462 0.732835
v -44.8513 44.68538 15.12885
vn -0.7165354 0.6850393 0.1181102
vt 0.50192 0.784876
v -44.8513 41.81171 14.64824
vn -0.7086614 -0.6929134 -0.1181102
vt 0.482868 0.784876
v -44.8513 44.58562 -1.760473
vn -0.7086614 -0.6929134 -0.1181102
vt 0.482868 1.00059
v -33.36622 44.72989 16.72201
vn -0.01574803 0.5748032 0.8188976
vt 0.692462 0.772304
v -44.8513 44.41438 16.72201
vn -0.5826772 0.472441 0.6614173
vt 0.50192 0.772304
v -44.8513 41.45996 16.20108
vn -0.5826772 -0.6614173 0.472441
vt 0.482868 0.728281
v -33.32961 41.45995 16.20108
vn 0 -0.8188976 0.5748032
vt 0.683033 0.728281
v 5.51087 42.10255 13.73695
vn -0.5748032 0.07086614 0.8110236
vt -0.868937 -0.217934
v 7.381382 42.10255 13.73695
vn 0.5748032 0.07086614 0.8110236
vt -0.828714 -0.217934
v 5.51087 43.38812 12.20486
vn -0.5748032 0.8110236 -0.07086614
vt -0.868937 -0.218157
v 7.381382 30.61188 4.095138
vn 0.7086614 -0.4566929 0.5433071
vt -0.828714 -0.268477
v 5.51087 31.89745 2.56305
vn -0.7086614 0.4566929 -0.5433071
vt -0.868937 -0.2687
v 5.51087 30.61188 4.095138
vn -0.7086614 -0.4566929 0.5433071
vt -0.868937 -0.268477
v 7.381382 43.38812 12.20486
vn 0.5748032 0.8110236 -0.07086614
vt -0.828714 -0.218157
v 7.381382 31.89745 2.56305
vn 0.7086614 0.4566929 -0.5433071
vt -0.828714 -0.2687
v -40.98913 42.57006 13.27097
vn -0.5748032 0.1417323 0.8031496
vt -0.868937 -0.148673
v -39.11862 42.57006 13.27097
vn 0.5748032 0.1417323 0.8031496
vt -0.828714 -0.148673
v -40.98913 43.71722 11.63267
vn -0.5748032 0.8031496 -0.1417323
vt -0.868937 -0.149053
v -39.11862 30.28279 4.667326
vn 0.7086614 -0.4094488 0.5826772
vt -0.828714 -0.196781
v -40.98913 31.42994 3.029024
vn -0.7086614 0.4094488 -0.5826772
vt -0.868937 -0.196781
v -40.98913 30.28279 4.667326
vn -0.7086614 -0.4094488 0.5826772
vt -0.868937 -0.196781
v -39.11862 43.71722 11.63267
vn 0.5748032 0.8031496 -0.1417323
vt -0.828714 -0.149053
v -39.11862 31.42994 3.029024
vn 0.7086614 0.4094488 -0.5826772
vt -0.828714 -0.196781
v -0.189724 9.563638 10.44173
vn 0.007874016 0.2519685 0.968504
vt 0.367549 0.746609
v 5.49 16 9.8
vn -0.03937008 0.1023622 0.992126
vt 0.463708 0.876096
v -5.29 16 9.8
vn 0.03937008 0.07874016 1
vt 0.281816 0.876096
v 5.49 13.02864 10.44174
vn -0.1732284 0.2834646 0.9448819
vt 0.463708 0.826149
v -5.29 13.02864 10.44174
vn 0.1889764 0.2834646 0.9370078
vt 0.281816 0.826149
v 5.49 10.33024 11.49807
vn -0.2204724 0.3543307 0.9055118
vt 0.463708 0.746609
v -5.29 10.33024 11.49807
vn 0.2440945 0.3543307 0.9055118
vt 0.281816 0.746609
v 5.49 22.93 9.800025
vn 0 0 1
vt 0.463708 0.992585
v -5.29 22.93 9.800025
vn 0 0 1
vt 0.281816 0.992585
v -27.38972 24.86364 10.44173
vn 0.007874016 0.2519685 0.968504
vt 0.367549 0.746609
v -21.71 31.3 9.8
vn -0.03937008 0.1023622 0.992126
vt 0.463708 0.876096
v -32.49 31.3 9.8
vn 0.03937008 0.07874016 1
vt 0.281816 0.876096
v -21.71 28.32864 10.44174
vn -0.1732284 0.2834646 0.9448819
vt 0.463708 0.826149
v -32.49 28.32864 10.44174
vn 0.1889764 0.2834646 0.9370078
vt 0.281816 0.826149
v -21.71 25.63024 11.49807
vn -0.2204724 0.3543307 0.9055118
vt 0.463708 0.746609
v -32.49 25.63024 11.49807
vn 0.2440945 0.3543307 0.9055118
vt 0.281816 0.746609
v -21.71 38.23 9.800025
vn 0 0 1
vt 0.463708 0.992585
v -32.49 38.23 9.800025
vn 0 0 1
vt 0.281816 0.992585
v -36.09 16.3 10.75
vn 0.1259843 0.1889764 0.976378
vt 0.0934612 0.876292
v -25.31 9.369999 10.74998
vn 0.1259843 0.1889764 0.976378
vt 0.275369 0.752366
v -25.31 23.23 10.75002
vn 0 0 1
vt 0.275369 0.992585
v -30.7 10.39074 11.77138
vn 0.3385827 0.527559 0.7795275
vt 0.182682 0.752366
v -36.09 23.23 10.75002
vn 0 0 1
vt 0.0934612 0.992585
v -36.09 13.85574 11.7714
vn 0.3858268 0.5984252 0.7007874
vt 0.0934612 0.836646
v -35.02888 12.00285 13.85568
vn 0.488189 0.7637795 0.4251969
vt 0.0934612 0.752366
v -37.0782 0 8
vn -0.7086614 0 0.7086614
vt -0.856601 -0.0173694
v -28.9902 0 8
vn 0.7086614 0 0.7086614
vt -0.635091 -0.0173694
v -37.07821 40 8
vn -0.7086614 0 0.7086614
vt -0.856601 0.621122
v -37.07821 40 4
vn -1 0 0
vt -0.940378 0.621122
v -37.0782 0 4
vn -1 0 0
vt -0.940378 -0.0173694
v -28.9902 40 8
vn 0.7086614 0 0.7086614
vt -0.635091 0.621122
v -28.9902 0 4
vn 1 0 0
vt -0.57525 -0.0173694
v -28.9902 40 4
vn 1 0 0
vt -0.57525 0.621122
v -5.10174 0 8
vn -0.7086614 0 0.7086614
vt -0.353333 -0.0173694
v 2.578203 0 8
vn 0.7086614 0 0.7086614
vt -0.137508 -0.0173694
v -5.10173 40 8
vn -0.7086614 0 0.7086614
vt -0.353333 0.621122
v -5.10173 40 4
vn -1 0 0
vt -0.43711 0.621122
v -5.10174 0 4
vn -1 0 0
vt -0.43711 -0.0173694
v 2.578207 40 8
vn 0.7086614 0 0.7086614
vt -0.137508 0.621122
v 2.578203 0 4
vn 1 0 0
vt -0.0633057 -0.0173694
v 2.578207 40 4
vn 1 0 0
vt -0.0633057 0.621122
v -10.09 32.3 10.75
vn 0 0 1
vt 0.275369 0.876292
v 0.6900001 32.3 10.75
vn -0.08661418 0.1338583 0.984252
vt 0.0934612 0.876292
v 0.6900001 39.23 10.75002
vn 0 0 1
vt 0.0934612 0.992585
v -10.09 25.37 10.74998
vn -0.1732284 0.2677165 0.9448819
vt 0.275369 0.752366
v -10.09 39.23 10.75002
vn 0 0 1
vt 0.275369 0.992585
v 0.6900001 29.43819 12.02873
vn -0.3464567 0.5433071 0.7637795
vt 0.0934612 0.827544
v -4.7 25.97319 12.02872
vn -0.3937008 0.6141732 0.6850393
vt 0.184373 0.752366
v 0.6900001 28.16426 14.36416
vn -0.488189 0.7637795 0.4173228
vt 0.0934612 0.752366
v -44.8513 41.81171 14.64824
vn -0.7086614 -0.6929134 -0.1181102
vt -0.997272 0.753043
v -33.32961 41.45995 16.20108
vn 0 -0.8188976 0.5748032
vt -0.997272 0.753043
v -44.8513 41.45996 16.20108
vn -0.5826772 -0.6614173 0.472441
vt -0.997272 0.753043
v -33.46584 44.58562 -1.760473
vn 0 -0.984252 -0.1732284
vt -0.997272 0.753043
v -44.8513 44.58562 -1.760473
vn -0.7086614 -0.6929134 -0.1181102
vt -0.997272 0.753043
v -10.48425 44.38281 -1.760469
vn 0 -0.984252 -0.1574803
vt -0.997272 0.753043
v -10.87027 41.45995 16.5327
vn -0.01574803 -0.8110236 0.5905512
vt -0.997272 0.753043
v -22.54199 44.38281 -1.760473
vn 0 -0.984252 -0.1574803
vt -0.997272 0.753043
v 0.2076354 41.45995 16.5327
vn 0.01574803 -0.8110236 0.5826772
vt -0.997272 0.753043
v -0.08128697 44.58561 -1.76047
vn 0 -0.984252 -0.1732284
vt -0.997272 0.753043
v -22.62453 41.45995 16.28616
vn -0.01574803 -0.8110236 0.5905512
vt -0.997272 0.753043
v 11.18479 41.45994 16.20108
vn 0.5905512 -0.6535433 0.472441
vt -0.997272 0.753043
v 11.18479 44.58562 -1.760473
vn 0.7086614 -0.7007874 -0.1181102
vt -0.997272 0.753043
v 10.5145 37.8568 9.1
vn 0.7716535 0.03149606 0.6377953
vt 0.00871807 0.413361
v 10.5145 37.8568 5.11608
vn 0.8740157 0 -0.480315
vt -0.00852579 0.413361
v 9.77416 44.5 9.1
vn 0.5511811 0.6220472 0.5590551
vt 0.00871807 0.346686
v 9.80316 30.0528 5.11608
vn 0.6062992 0.06299213 -0.7952756
vt -0.00852579 0.480035
v 9.80316 30.0528 9.1
vn 0.2755905 -0.01574803 0.9606299
vt 0.00871807 0.480035
v 9.77416 44.5 5.11608
vn 0.6692913 0.4094488 -0.6220472
vt -0.00852579 0.346686
v -43.629 38.6855 5.11609
vn -0.8346457 -0.02362205 -0.5433071
vt 0.0397397 0.0183838
v -43.629 38.6855 9.1
vn -0.7086614 -0.04724409 0.7086614
vt 0.0117609 0.0183838
v -43.8774 44.5 5.11609
vn -0.6220472 0.3464567 -0.7007874
vt 0.0397397 -0.0159855
v -43.0406 31.9946 9.1
vn -0.4173228 0.02362205 0.9055118
vt 0.0117609 0.071412
v -43.0406 31.9946 5.11609
vn -0.7637795 0.2125984 -0.6062992
vt 0.0397397 0.071412
v -43.8774 44.5 9.1
vn -0.4094488 0.3937008 0.8188976
vt 0.0117609 -0.0159855
v -43.9374 30.1307 5.11609
vn -0.8740157 0.2204724 -0.4330709
vt 1.37823 0.213891
v -43.9374 30.1307 9.1
vn -0.8425197 0.2598425 0.4645669
vt 1.33862 0.213891
v -43.0406 31.9946 5.11609
vn -0.7637795 0.2125984 -0.6062992
vt 1.37823 0.222187
v -43.852 27.3763 9.1
vn -0.7086614 0.1811024 0.6771653
vt 1.33862 0.201633
v -43.852 27.3763 5.11609
vn -0.8976378 0.1968504 -0.3937008
vt 1.37823 0.201633
v -43.0406 31.9946 9.1
vn -0.4173228 0.02362205 0.9055118
vt 1.33862 0.222187
v -43.0378 24.5597 9.1
vn -0.6220472 0.07874016 0.7795275
vt 1.33862 0.189097
v -43.0378 24.5597 5.11609
vn -0.8976378 -0.2125984 -0.3937008
vt 1.37823 0.189097
v -43.4114 22.0456 9.1
vn -0.3937008 0.1653543 0.9055118
vt 1.33862 0.177908
v -43.4114 22.0456 5.11609
vn -0.8976378 -0.2125984 -0.3937008
vt 1.37823 0.177908
v -42.5719 17.7111 9.1
vn -0.007874016 0.1574803 0.984252
vt 1.33862 0.164871
v -42.5719 17.7111 5.11608
vn -0.4566929 0.2755905 -0.8425197
vt 1.37823 0.164871
v -17.61 12.57 9.799975
vn 0 0 1
vt -1.53037 0.189003
v -28.39 26.43 9.800025
vn 0 0 1
vt -1.70301 0.41097
v -28.39 12.57 9.799975
vn 0 0 1
vt -1.70301 0.189003
v -17.61 26.43 9.800025
vn 0 0 1
vt -1.53037 0.41097
v -5.81 18.37 9.799975
vn 0 0 1
vt -1.31787 0.305491
v -16.59 32.23 9.800025
vn 0 0 1
vt -1.49051 0.527457
v -16.59 18.37 9.799975
vn 0 0 1
vt -1.49051 0.305491
v -5.81 32.23 9.800025
vn 0 0 1
vt -1.31787 0.527457
v -22.65378 44.65938 -1.760474
vn -0.007874016 -0.992126 -0.1259843
vt -0.997272 0.753043
v -33.40284 42.45995 16.20108
vn 0 -0.8188976 0.5748032
vt -0.997272 0.753043
v -33.53907 44.88331 -1.760474
vn -0.007874016 -0.992126 -0.1259843
vt -0.997272 0.753043
v -22.65006 42.45995 16.20108
vn 0 -0.8188976 0.5748032
vt -0.997272 0.753043

f 1/1/1 2/2/2 3/3/3
f 1/1/1 4/4/4 2/2/2
f 1/1/1 3/3/3 5/5/5
f 1/1/1 6/6/6 4/4/4
f 1/1/1 5/5/5 7/7/7
f 1/1/1 8/8/8 6/6/6
f 1/1/1 7/7/7 8/8/8
f 2/2/2 9/9/9 3/3/3
f 2/2/2 4/4/4 10/10/10
f 2/2/2 11/11/11 9/9/9
f 2/2/2 10/10/10 11/11/11
f 5/5/5 3/3/3 12/12/12
f 12/12/12 3/3/3 9/9/9
f 6/6/6 8/8/8 13/13/13
f 6/6/6 13/13/13 4/4/4
f 4/4/4 13/13/13 10/10/10
f 11/11/11 14/14/14 9/9/9
f 11/11/11 10/10/10 15/15/15
f 11/11/11 16/16/16 14/14/14
f 11/11/11 17/17/17 16/16/16
f 11/11/11 18/18/18 17/17/17
f 11/11/11 19/19/19 18/18/18
f 11/11/11 20/20/20 19/19/19
f 18/18/18 19/19/19 21/21/21
f 18/18/18 21/21/21 22/22/22
f 20/20/20 23/23/23 19/19/19
f 19/19/19 23/23/23 21/21/21
f 22/22/22 21/21/21 24/24/24
f 22/22/22 25/25/25 26/26/26
f 23/23/23 27/27/27 21/21/21
f 21/21/21 27/27/27 24/24/24
f 25/25/25 28/28/28 26/26/26
f 27/27/27 29/29/29 24/24/24
f 28/28/28 30/30/30 26/26/26
f 28/28/28 31/31/31 30/30/30
f 31/31/31 32/32/32 30/30/30
f 31/31/31 33/33/33 32/32/32
f 34/34/34 35/35/35 36/36/36
f 34/34/34 37/37/37 35/35/35
f 34/34/34 36/36/36 38/38/38
f 34/34/34 39/39/39 37/37/37
f 34/34/34 38/38/38 40/40/40
f 34/34/34 41/41/41 39/39/39
f 34/34/34 42/42/42 41/41/41
f 35/35/35 43/43/43 36/36/36
f 37/37/37 39/39/39 44/44/44
f 38/38/38 45/45/45 40/40/40
f 38/38/38 46/46/46 45/45/45
f 42/42/42 45/45/45 41/41/41
f 43/43/43 47/47/47 36/36/36
f 43/43/43 48/48/48 47/47/47
f 39/39/39 49/49/49 44/44/44
f 39/39/39 41/41/41 50/50/50
f 39/39/39 50/50/50 49/49/49
f 45/45/45 51/51/51 41/41/41
f 36/36/36 47/47/47 52/52/52
f 36/36/36 52/52/52 53/53/53
f 48/48/48 54/54/54 47/47/47
f 44/44/44 49/49/49 55/55/55
f 49/49/49 50/50/50 55/55/55
f 41/41/41 56/56/56 50/50/50
f 41/41/41 57/57/57 56/56/56
f 56/56/56 55/55/55 50/50/50
f 52/52/52 58/58/58 53/53/53
f 52/52/52 59/59/59 58/58/58
f 54/54/54 60/60/60 47/47/47
f 54/54/54 61/61/61 60/60/60
f 54/54/54 62/62/62 61/61/61
f 47/47/47 60/60/60 63/63/63
f 61/61/61 64/64/64 60/60/60
f 61/61/61 65/65/65 64/64/64
f 60/60/60 64/64/64 63/63/63
f 65/65/65 66/66/66 64/64/64
f 64/64/64 66/66/66 63/63/63
f 67/67/67 68/68/68 69/69/69
f 67/67/67 70/70/70 68/68/68
f 67/67/67 69/69/69 71/71/71
f 67/67/67 72/72/72 70/70/70
f 67/67/67 71/71/71 72/72/72
f 68/68/68 73/73/73 69/69/69
f 68/68/68 70/70/70 73/73/73
f 69/69/69 73/73/73 71/71/71
f 70/70/70 74/74/74 73/73/73
f 73/73/73 74/74/74 71/71/71
f 75/75/75 76/76/76 77/77/77
f 75/75/75 78/78/78 76/76/76
f 75/75/75 77/77/77 79/79/79
f 75/75/75 80/80/80 78/78/78
f 75/75/75 79/79/79 80/80/80
f 76/76/76 81/81/81 77/77/77
f 76/76/76 78/78/78 81/81/81
f 77/77/77 81/81/81 79/79/79
f 78/78/78 82/82/82 81/81/81
f 81/81/81 82/82/82 79/79/79
f 83/83/83 84/84/84 85/85/85
f 83/83/83 86/86/86 84/84/84
f 83/83/83 85/85/85 87/87/87
f 83/83/83 88/88/88 86/86/86
f 83/83/83 87/87/87 89/89/89
f 84/84/84 90/90/90 85/85/85
f 90/90/90 91/91/91 85/85/85
f 92/92/92 93/93/93 94/94/94
f 92/92/92 95/95/95 93/93/93
f 92/92/92 94/94/94 96/96/96
f 92/92/92 97/97/97 95/95/95
f 92/92/92 96/96/96 98/98/98
f 93/93/93 99/99/99 94/94/94
f 99/99/99 100/100/100 94/94/94
f 101/101/101 102/102/102 103/103/103
f 101/101/101 104/104/104 102/102/102
f 101/101/101 103/103/103 105/105/105
f 101/101/101 106/106/106 104/104/104
f 106/106/106 107/107/107 104/104/104
f 108/108/108 109/109/109 110/110/110
f 108/108/108 110/110/110 111/111/111
f 108/108/108 111/111/111 112/112/112
f 109/109/109 113/113/113 110/110/110
f 109/109/109 114/114/114 113/113/113
f 114/114/114 115/115/115 113/113/113
f 116/116/116 117/117/117 118/118/118
f 116/116/116 118/118/118 119/119/119
f 116/116/116 119/119/119 120/120/120
f 117/117/117 121/121/121 118/118/118
f 117/117/117 122/122/122 121/121/121
f 122/122/122 123/123/123 121/121/121
f 124/124/124 125/125/125 126/126/126
f 124/124/124 127/127/127 125/125/125
f 124/124/124 126/126/126 128/128/128
f 127/127/127 129/129/129 125/125/125
f 127/127/127 130/130/130 129/129/129
f 130/130/130 131/131/131 129/129/129
f 132/132/132 133/133/133 134/134/134
f 132/132/132 135/135/135 133/133/133
f 132/132/132 136/136/136 135/135/135
f 137/137/137 138/138/138 139/139/139
f 137/137/137 140/140/140 138/138/138
f 137/137/137 141/141/141 140/140/140
f 139/139/139 138/138/138 142/142/142
f 141/141/141 143/143/143 140/140/140
f 141/141/141 144/144/144 143/143/143
f 145/145/145 146/146/146 147/147/147
f 145/145/145 148/148/148 146/146/146
f 145/145/145 149/149/149 148/148/148
f 147/147/147 146/146/146 150/150/150
f 151/151/151 152/152/152 153/153/153
f 151/151/151 154/154/154 152/152/152
f 151/151/151 155/155/155 154/154/154
f 153/153/153 152/152/152 156/156/156
f 157/157/157 158/158/158 159/159/159
f 157/157/157 160/160/160 158/158/158
f 157/157/157 161/161/161 160/160/160
f 159/159/159 158/158/158 162/162/162
f 161/161/161 163/163/163 160/160/160
f 161/161/161 164/164/164 163/163/163
f 164/164/164 165/165/165 163/163/163
f 164/164/164 166/166/166 165/165/165
f 166/166/166 167/167/167 165/165/165
f 166/166/166 168/168/168 167/167/167
f 169/169/169 170/170/170 171/171/171
f 169/169/169 172/172/172 170/170/170
f 173/173/173 174/174/174 175/175/175
f 173/173/173 176/176/176 174/174/174
f 177/177/177 178/178/178 179/179/179
f 177/177/177 180/180/180 178/178/178

